<?xml version="1.0" encoding="utf-8"?>
<!-- Generator: Adobe Illustrator 27.2.0, SVG Export Plug-In . SVG Version: 6.00 Build 0)  -->
<svg version="1.1" id="Capa_1" xmlns="http://www.w3.org/2000/svg" xmlns:xlink="http://www.w3.org/1999/xlink" x="0px" y="0px"
	 viewBox="0 0 2608 2664.6" style="enable-background:new 0 0 2608 2664.6;" xml:space="preserve">
<style type="text/css">
	.st0{fill-rule:evenodd;clip-rule:evenodd;}
	.st1{fill-rule:evenodd;clip-rule:evenodd;fill:#7C6EB0;}
	.st2{fill-rule:evenodd;clip-rule:evenodd;fill:#FFFFFF;}
	.st3{fill:none;stroke:#FFFFFF;stroke-width:1.0001;stroke-miterlimit:22.9256;}
	.st4{fill-rule:evenodd;clip-rule:evenodd;fill:#E30613;}
	
		.st5{clip-path:url(#SVGID_00000043445125448491435090000006153420578161856702_);fill:url(#SVGID_00000018194625491060703540000012811406765361941180_);}
	.st6{fill:none;stroke:#000000;stroke-width:0.216;stroke-miterlimit:22.9256;}
</style>
<path class="st0" d="M1127.3,243.8L1127.3,243.8c0-21.5,39.1-25.4,61.4-25.4h9.3c61.4,0,135.8,13.7,160,50.7
	c70.7,0,163.7,23.4,232.5,31.2c40.9,5.8,65.1,11.7,107.9,19.5c29.8,3.9,81.9,11.7,107.9,19.5c76.3,25.4,392.5,62.4,407.4,122.9h27.9
	l180.4-7.8l11.2,3.9l174.9,3.9c-5.6-5.8-619.5-216.5-677.1-234.1c-115.3-33.2-226.9-81.9-338.6-115.1C1540.3,97.5,1276.1,0,1253.8,0
	c-57.7,0-126.5,5.9-184.2,11.7c-48.4,5.9-128.4,13.6-174.9,23.4c-52.1,11.7-117.2,17.5-167.4,27.3c-50.2,9.8-120.9,19.5-163.7,35.1
	c-24.2,7.8-53.9,9.8-80,17.6c-22.3,9.8-55.8,15.6-78.1,21.5c-42.8,11.7-109.8,33.2-147,50.7c-22.3,11.7-48.4,17.6-70.7,27.3
	c-24.2,13.7-44.7,21.5-67,33.2c-29.8,15.6-106,56.6-120.9,78c40.9,3.9,135.8,9.8,182.3,9.8c65.1,2,132.1,17.6,193.5,19.5
	c57.7,3.9,124.6,23.4,180.4,33.2c53.9,7.8,119.1,25.4,173,39c22.3,5.8,33.5,2,24.2,21.5c-5.6,11.7-5.6,33.2-7.4,46.8
	c-5.6,29.3-9.3,66.3-14.9,95.6c-3.7,19.5-31.6,50.7-42.8,66.3c-16.7,19.5-26,46.8-40.9,66.3C625,754.9,599,836.8,586,881.7
	c-14.9,52.7-26,119-26,189.2c0,97.5,29.8,218.5,59.5,286.7c18.6,42.9,37.2,72.2,59.5,113.1c11.2,17.6,61.4,66.3,80,89.7
	c46.5,62.4,102.3,130.7,139.5,202.9c24.2,42.9,31.6,74.1,44.7,128.7c5.6,23.4,29.8,128.7,29.8,144.4c0,3.9-13,9.8-18.6,13.6
	s-7.4,11.7-9.3,17.6c9.3,19.5,27.9,46.8,24.2,76.1c-1.9,17.6-1.9,29.3-3.7,48.8c0,15.6-9.3,27.3-9.3,39v25.4l-11.2,1.9
	c7.4,17.6,18.6,29.3,18.6,48.8v9.8c0,31.2-22.3,31.2-22.3,68.3c0,1.9,27.9,81.9,29.8,83.9c14.9,17.6,39.1,37.1,57.7,52.7
	c39.1,35.1,72.6,68.3,117.2,99.5c31.6,0,39.1,13.6,57.7,27.3h16.7c9.3,5.9,11.2,15.6,26,15.6h83.7c13,0,72.6-39,89.3-44.9
	c22.3-9.8,55.8-39,74.4-54.6c31.6-27.3,35.3-37.1,76.3-56.6c35.4-17.6,37.2-44.9,37.2-87.8V2372c0-21.5,16.7-25.4,22.3-39
	c7.4-19.5,3.7-29.3,3.7-50.7c-11.2-7.8-20.5-11.7-22.3-29.3h3.7l-5.6-72.2c-1.9-13.6,7.4-25.4,7.4-42.9v-5.9c0-15.6-9.3-17.6-9.3-39
	v-1.9c0-7.8,13-17.6,13-37.1c0-11.7-14.9-37.1-14.9-50.7v-15.6c0-89.7,52.1-202.9,83.7-265.3c13-27.3,48.4-81.9,68.8-103.4
	c42.8-54.6,117.2-109.2,150.7-163.9c35.4-58.5,72.6-134.6,85.6-202.9c7.4-31.2,24.2-95.6,24.2-124.8v-120.9
	c0-58.5-50.2-220.4-74.4-257.5c-9.3-15.6-16.7-39-18.6-62.4c0-5.8-14.9-54.6-16.7-66.3c-11.2-44.9-27.9-76.1-37.2-122.9l299.5-37.1
	v3.9c-18.6-27.3-340.4-95.6-403.7-101.4c-31.6-3.9-72.6-13.7-107.9-19.5c-29.8-5.8-78.1-11.7-106-19.5
	c-27.9-7.8-187.9-33.2-217.6-33.2c-7.4,0-13,7.8-27.9,7.8h-44.6C1227.8,298.4,1127.3,273.1,1127.3,243.8 M785,797.8L785,797.8
	c0-17.6,20.5-52.7,27.9-64.4l-39.1-25.4c0,1.9-65.1,120.9-74.4,146.3c-16.7,46.8-35.3,126.8-35.3,187.3v70.2
	c0,78,42.8,204.8,72.6,253.6c44.7,76.1,85.6,119,137.7,185.3c14.9,17.6,57.7,78,67,97.5c14.9,29.3,44.7,74.1,55.8,103.4
	c11.2,29.3,39.1,93.6,42.8,122.9c1.9,19.5,20.5,124.8,26,134.6c39.1,0,78.1,0,117.2,0c16.7,0,42.8,0,57.7,1.9
	c35.4,3.9,22.3-9.8,40.9-9.8c0,0,13,7.8,24.2,9.8c9.3,0,20.5-1.9,29.8-1.9c22.3,0,42.8,0,65.1,0c39.1,0,91.1,11.7,106-11.7
	c0-46.8,13-107.3,22.3-142.4c7.4-23.4,14.9-41,20.5-62.4c7.4-21.5,16.7-37.1,24.2-56.6c20.5-60.5,93-146.3,130.2-193.1
	c14.9-17.6,26-25.4,40.9-41c14.9-13.7,22.3-29.3,37.2-44.9c20.5-23.4,48.4-64.4,63.2-97.5c3.7-7.8,20.5-48.8,26-54.6
	c11.2-19.5,14.9-37.1,22.3-60.5c9.3-35.1,22.3-93.6,22.3-138.5v-70.2c0-64.4-18.6-115.1-29.8-167.8l-48.4,11.7
	c9.3,39,24.2,83.9,24.2,132.6v39c0,23.4-9.3,44.9-13,64.4c-5.6,37.1-7.4,27.3-18.6,54.6c-11.2,29.3-39.1,64.4-78.1,64.4h-16.7v11.7
	c0,5.8,40.9,56.6,40.9,99.5v9.8c0,15.6-7.4,9.8-7.4,33.2c-16.7,11.7-11.2,23.4-42.8,37.1c-26,11.7-24.2,15.6-61.4,19.5
	c-78.1,9.8-65.1-7.8-126.5,29.3c-156.3,95.6-176.7-58.5-199.1-58.5h-3.7c-5.6,0-29.8,23.4-37.2,29.3c-14.9,9.8-20.5,19.5-14.9,42.9
	c3.7,27.3,0,99.5,0,130.7c0,85.8,9.3,175.6,5.6,253.6l-3.7,105.3l-9.3,7.8c-7.4-31.2-9.3-64.4-13-95.6c-5.6-33.2-7.4-54.6-13-87.8
	c-5.6-29.3-1.9-66.3-5.6-99.5c-3.7-27.3-13-62.4-13-89.7c0-46.8-26-158-3.7-181.4c16.7-15.6,107.9-78,107.9-95.6v-1.9
	c0-15.6-98.6-19.5-115.3-23.4c-27.9-5.9-94.9-9.8-126.5-11.7c-1.9-1.9-53.9-11.7-57.7-13.7c-9.3-1.9-20.5-3.9-27.9-5.8
	c-7.4-3.9-11.2-9.8-20.5-13.7c-24.2-7.8-24.2-13.6-39.1-29.3c-18.6-19.5-11.2-25.4-16.7-54.6c-26-5.9-39.1-5.9-65.1-13.7
	c-31.6-9.8-31.6-7.8-57.7-23.4c-26-11.7-78.1-46.8-78.1-80v-42.9c0-23.4,16.7-60.5,26-74.1c7.4-7.8,14.9-17.6,24.2-25.4
	c7.4-5.8,27.9-13.7,27.9-19.5c0-23.4-24.2-37.1-24.2-64.4L785,797.8L785,797.8z M999,792L999,792l-143.2-44.9
	c-9.3,5.8-27.9,31.2-27.9,46.8v27.3c0,17.6,13,54.6,27.9,54.6c0,0,57.7-23.4,57.7-27.3c0-13.7-11.2-13.7-11.2-31.2v-3.9
	c0-11.7,3.7-9.8,5.6-21.5c27.9,0,7.4,17.6,22.3,37.1c7.4,13.7,14.9,21.5,24.2,37.1l-7.4,9.8h-29.8c-11.2,7.8-35.3,33.2-37.2,52.7
	l-42.8,1.9c-16.7,11.7-29.8,23.4-40.9,42.9c-3.7,9.8-22.3,54.6-22.3,64.4c0,52.7,102.3,99.5,161.8,95.6l158.1-5.9h27.9
	c104.2,0,57.7-181.4,171.1-214.6c-1.9-21.5-40.9-27.3-57.7-41c-37.2-29.3-3.7-19.5-63.2-37.1c-24.2-5.8-52.1-15.6-78.1-21.5
	c-14.9-1.9-76.3-25.4-76.3-5.8v3.9c0,25.4,74.4,41,74.4,54.6c0,1.9-40.9,66.3-46.5,78c-7.4,17.6-3.7,37.1-29.8,33.2
	c-20.5-3.9-33.5-7.8-52.1-1.9c-1.9,1.9-3.7,7.8-3.7,7.8c0,13.7,18.6,27.3,27.9,33.2c18.6,0,48.4-7.8,70.7-5.8
	c18.6,0,61.4,15.6,63.2,15.6c14.9,0,13-99.5,57.7-99.5c16.7,0-5.6,52.7-11.2,66.3c-7.4,23.4-11.2,60.5-31.6,70.2l-130.2-17.6h-22.3
	c-14.9,0-16.7,5.9-29.8,5.9c-7.4,0-7.4-1.9-13-5.9c0-35.1-27.9-56.6-27.9-74.1c0-11.7,22.3-39,33.5-39h16.7l42.8,7.8l13-17.6
	l3.7-27.3l-16.7-13.7C1082.7,899.2,974.8,846.6,999,792z M1229.6,1082.6L1229.6,1082.6v7.8c0,31.2,93,163.9,128.4,163.9h20.5
	c11.2,0,20.5-19.5,42.8-19.5v11.7c0,23.4-18.6,52.7-18.6,83.9v50.7c0,31.2,35.3,70.2,67,70.2h3.7c31.6,0,57.7-23.4,70.7-41
	c16.7-23.4,52.1,0,85.6,0c37.2,0,70.7-21.5,70.7-60.5c0-54.6-42.8-124.8-42.8-150.2c0-29.3,74.4-35.1,100.4-56.6
	c24.2-17.6,46.5-72.2,46.5-115.1v-44.9c0-31.2-14.9-68.3-16.7-91.7l-61.4,11.7c0,9.8-1.9,23.4-7.4,23.4c-9.3,0-9.3-5.8-22.3-5.8
	l-22.3-1.9l-33.5,3.9c-1.9-5.8-1.9-11.7-11.2-11.7h-46.5c1.9,31.2,53.9,68.3,67,99.5c-18.6,13.6-65.1,56.6-67,85.8
	c35.3,0,53.9-60.5,117.2-60.5h1.9c9.3,0,9.3,5.9,13,11.7c-11.2,23.4-59.5,15.6-87.4,72.2c-13,27.3-13,29.3-20.5,62.4
	c-5.6,19.5-7.4,54.6-14.9,68.3l-52.1-3.9h-5.6c-5.6,0-42.8,29.3-42.8,29.3c-5.6,0-9.3-1.9-9.3-5.9c0-19.5,9.3-27.3,9.3-35.1
	c0-37.1-33.5-50.7-33.5-103.4c-1.9-1.9-7.4-5.8-9.3-7.8l-48.4,7.8c-22.3,3.9-53.9-29.3-61.4-44.9c14.9-31.2,9.3-29.3,31.6-56.6
	c7.4-9.7,39.1-35.1,53.9-37.1c1.9-7.8,1.9-5.8,1.9-11.7c0-25.4-11.2-13.7-9.3-50.7c3.7-1.9,9.3-3.9,9.3-3.9
	c14.9,0,24.2,25.4,29.8,39c7.4,15.6,22.3,31.2,22.3,46.8h-9.3c-3.7,0-14.9-7.8-20.5-11.7c-22.3,3.9-20.5,13.7-31.6,31.2
	c-3.7,7.8-26,35.1-26,39v5.9c0,7.8,11.2,19.5,18.6,19.5h5.6c9.3,0,48.4-39,67-39c18.6,0,24.2,64.4,29.8,83.9
	c11.2,46.8,3.7,54.6,40.9,74.1c5.6-3.9,18.6-7.8,18.6-15.6c0-19.5-18.6-44.9-18.6-81.9c0-46.8,27.9-76.1,37.2-115.1l-40.9-91.7
	h-14.9c-18.6,0-59.5-5.8-78.1-9.8c-18.6-3.9-50.2-17.6-68.8-17.6c-11.2,0-37.2,35.1-44.6,44.9c-1.9,3.9-44.6,25.4-55.8,35.1
	C1257.5,987,1229.6,1028,1229.6,1082.6z M1118,1170.4L1118,1170.4c0-7.8,37.2-25.4,46.5-31.2c14.9-7.8,26-27.3,39.1-29.3
	c13,25.4,29.8,56.6,40.9,81.9c9.3,21.5,48.4,68.3,48.4,74.1v3.9c0,7.8-1.9,9.8-9.3,9.8c-55.8,0-124.6-19.5-176.7-19.5
	c-33.5,0-143.2-23.4-143.2-50.7v-3.9c0-29.3,42.8-35.1,72.6-35.1c35.3,0,100.4,66.3,143.2,66.3c13,0,31.6-9.8,31.6-21.5v-3.9
	c0-7.8-3.7-5.8-7.4-11.7C1179.4,1199.6,1118,1189.9,1118,1170.4z M965.5,2057.9L965.5,2057.9c5.6-11.7,16.7-21.5,33.5-21.5h574.8
	c13,0,31.6,9.8,31.6,21.5c0,9.8-9.3,13.6-18.6,13.6h-599C974.8,2071.6,971.1,2065.7,965.5,2057.9z M969.2,2225.7L969.2,2225.7
	c0-52.7,94.9-37.1,141.4-46.8c55.8-11.7,111.6-11.7,169.3-17.6c26-3.9,48.4-13.6,80-13.6c22.3,0,67-3.9,87.4-7.8
	c24.2-3.9,158.1-29.3,158.1,1.9c0,21.5-124.6,25.4-152.5,29.3c-57.7,3.9-106,15.6-163.7,17.6c-24.2,1.9-52.1,7.8-78.1,11.7
	c-26,1.9-50.2,5.9-83.7,7.8C1092,2212,991.5,2231.5,969.2,2225.7z M993.4,2370L993.4,2370h-14.9c-7.4,0-9.3-3.9-9.3-9.8
	c0-35.1,109.8-39,143.2-42.9c50.2-3.9,122.8-7.8,169.3-17.6c53.9-9.8,109.8-13.6,167.4-17.6c22.3-1.9,156.3-33.2,156.3,0
	c0,23.4-115.3,25.4-143.2,29.3c-53.9,5.9-104.2,11.7-158.1,19.5c-46.5,5.9-107.9,17.6-154.4,19.5c-18.6,0-61.4,1.9-78.1,5.9
	C1064.1,2358.3,997.1,2370,993.4,2370z M1054.8,2411L1054.8,2411h479.9c13,0,29.8,5.9,29.8,19.5v1.9c0,7.8-1.9,9.8-9.3,9.8h-506
	c-9.3,0-9.3,0-16.7-1.9C1032.5,2420.7,1036.2,2411,1054.8,2411z M1101.3,2520.2c5.6-3.9,3.7-5.9,11.2-5.9h80
	c9.3,0,20.5,19.5,33.5,25.4s39.1,1.9,57.7,1.9c20.5,0,109.8-7.8,109.8,9.8v3.9c0,13.6-22.3,19.5-35.4,19.5h-189.7
	C1147.8,2574.8,1108.7,2533.9,1101.3,2520.2z"/>
<path class="st0" d="M1136.6,243.8c16.7,23.4,78.1,44.9,117.2,44.9h42.8c29.8,0,29.8-7.8,48.4-13.7c-1.9-31.2-87.4-46.8-124.6-46.8
	h-46.5C1157.1,228.2,1144.1,234.1,1136.6,243.8"/>
<path class="st1" d="M827.8,793.9v27.3c0,17.6,13,54.6,27.9,54.6c0,0,57.7-23.4,57.7-27.3c0-13.7-11.2-13.7-11.2-31.2v-3.9
	c0-11.7,3.7-9.8,5.6-21.5c27.9,0,7.4,17.6,22.3,37.1c7.4,13.7,14.9,21.5,24.2,37.1l-7.4,9.8h-29.8c-11.2,7.8-35.3,33.2-37.2,52.7
	l-42.8,1.9c-16.7,11.7-29.8,23.4-40.9,42.9c-3.7,9.8-22.3,54.6-22.3,64.4c0,52.7,102.3,99.5,161.8,95.6l158.1-5.9h27.9
	c104.2,0,57.7-181.4,171.1-214.6c-1.9-21.5-40.9-27.3-57.7-41c-37.2-29.3-3.7-19.5-63.2-37.1c-24.2-5.8-52.1-15.6-78.1-21.5
	c-14.9-1.9-76.3-25.4-76.3-5.8v3.9c0,25.4,74.4,41,74.4,54.6c0,1.9-40.9,66.3-46.5,78c-7.4,17.6-3.7,37.1-29.8,33.2
	c-20.5-3.9-33.5-7.8-52.1-1.9c-1.9,1.9-3.7,7.8-3.7,7.8c0,13.7,18.6,27.3,27.9,33.2c18.6,0,48.4-7.8,70.7-5.8
	c18.6,0,61.4,15.6,63.2,15.6c14.9,0,13-99.5,57.7-99.5c16.7,0-5.6,52.7-11.2,66.3c-7.4,23.4-11.2,60.5-31.6,70.2l-130.2-17.6h-22.3
	c-14.9,0-16.7,5.9-29.8,5.9c-7.4,0-7.4-1.9-13-5.9c0-35.1-27.9-56.6-27.9-74.1c0-11.7,22.3-39,33.5-39h16.7l42.8,7.8l13-17.6
	l3.7-27.3l-16.7-13.7c76.3,17.6-31.6-35.1-7.4-89.7l-143.2-44.9C846.4,752.9,827.8,778.3,827.8,793.9"/>
<path class="st0" d="M1428.7,286.7c-9.3-2-59.5-11.7-61.4-11.7h-7.4c-7.4,0-9.3,5.8-11.2,9.8c37.2,0,109.8,15.6,147,21.5
	c46.5,7.8,98.6,13.7,141.4,23.4c33.5,9.8,107.9,21.5,143.2,25.4c42.8,5.8,93,17.6,139.5,27.3c42.8,7.8,240,52.7,258.6,74.1
	c11.2,13.7,5.6,132.6-5.6,150.2c-3.7,5.8-35.4,5.8-48.4,37.1c-13,25.4-7.4,41,5.6,60.5c0,56.6-16.7,134.6-24.2,191.2
	c-1.9,33.2-7.4,58.5-13,91.7c-1.9,13.7-22.3,80-5.6,80c5.6,0,5.6-3.9,7.4-9.8l7.4,7.8l7.4-9.8l20.5,1.9l5.6-13.7l5.6,21.5
	c11.2-7.8,11.2-60.5,11.2-81.9h3.7v83.9l13-5.8c33.5,21.5-1.9-80,13-105.3l7.4,101.4h9.3v15.6c13,0,11.2,0,11.2-15.6l7.4,15.6h11.2
	l3.7-15.6c5.6,7.8,9.3,19.5,18.6,19.5c11.2,0,0-23.4,0-35.1c11.2,15.6,5.6,35.1,33.5,35.1c0-25.4-16.7-58.5-18.6-89.7
	c-3.7-27.3-13-62.4-14.9-93.6c-5.6-46.8-18.6-138.5-27.9-185.3c27.9-42.9,13-74.1-24.2-95.6c0-136.5,52.1-165.8-87.4-195.1
	c-76.3-17.6-161.8-42.9-240-54.6c-39.1-7.8-83.7-19.5-122.8-25.4c-37.2-7.8-93-13.7-126.5-23.4c-39.1-9.8-89.3-9.8-126.5-21.5
	C1478.9,288.7,1449.1,290.6,1428.7,286.7"/>
<path class="st1" d="M1229.6,1082.6v7.8c0,31.2,93,163.9,128.4,163.9h20.5c11.2,0,20.5-19.5,42.8-19.5v11.7
	c0,23.4-18.6,52.7-18.6,83.9v50.7c0,31.2,35.3,70.2,67,70.2h3.7c31.6,0,57.7-23.4,70.7-41c16.7-23.4,52.1,0,85.6,0
	c37.2,0,70.7-21.5,70.7-60.5c0-54.6-42.8-124.8-42.8-150.2c0-29.3,74.4-35.1,100.4-56.6c24.2-17.6,46.5-72.2,46.5-115.1v-44.9
	c0-31.2-14.9-68.3-16.7-91.7l-61.4,11.7c0,9.8-1.9,23.4-7.4,23.4c-9.3,0-9.3-5.8-22.3-5.8l-22.3-1.9l-33.5,3.9
	c-1.9-5.8-1.9-11.7-11.2-11.7h-46.5c1.9,31.2,53.9,68.3,67,99.5c-18.6,13.6-65.1,56.6-67,85.8c35.3,0,53.9-60.5,117.2-60.5h1.9
	c9.3,0,9.3,5.9,13,11.7c-11.2,23.4-59.5,15.6-87.4,72.2c-13,27.3-13,29.3-20.5,62.4c-5.6,19.5-7.4,54.6-14.9,68.3l-52.1-3.9h-5.6
	c-5.6,0-42.8,29.3-42.8,29.3c-5.6,0-9.3-1.9-9.3-5.9c0-19.5,9.3-27.3,9.3-35.1c0-37.1-33.5-50.7-33.5-103.4
	c-1.9-1.9-7.4-5.8-9.3-7.8l-48.4,7.8c-22.3,3.9-53.9-29.3-61.4-44.9c14.9-31.2,9.3-29.3,31.6-56.6c7.4-9.7,39.1-35.1,53.9-37.1
	c1.9-7.8,1.9-5.8,1.9-11.7c0-25.4-11.2-13.7-9.3-50.7c3.7-1.9,9.3-3.9,9.3-3.9c14.9,0,24.2,25.4,29.8,39
	c7.4,15.6,22.3,31.2,22.3,46.8h-9.3c-3.7,0-14.9-7.8-20.5-11.7c-22.3,3.9-20.5,13.7-31.6,31.2c-3.7,7.8-26,35.1-26,39v5.9
	c0,7.8,11.2,19.5,18.6,19.5h5.6c9.3,0,48.4-39,67-39c18.6,0,24.2,64.4,29.8,83.9c11.2,46.8,3.7,54.6,40.9,74.1
	c5.6-3.9,18.6-7.8,18.6-15.6c0-19.5-18.6-44.9-18.6-81.9c0-46.8,27.9-76.1,37.2-115.1l-40.9-91.7h-14.9c-18.6,0-59.5-5.8-78.1-9.8
	c-18.6-3.9-50.2-17.6-68.8-17.6c-11.2,0-37.2,35.1-44.6,44.9c-1.9,3.9-44.6,25.4-55.8,35.1C1257.5,987,1229.6,1028,1229.6,1082.6"/>
<path class="st1" d="M1118,1170.4c0,19.5,61.4,29.3,85.6,29.3c3.7,5.8,7.4,3.9,7.4,11.7v3.9c0,11.7-18.6,21.5-31.6,21.5
	c-42.8,0-107.9-66.3-143.2-66.3c-29.8,0-72.6,5.8-72.6,35.1v3.9c0,27.3,109.8,50.7,143.2,50.7c52.1,0,120.9,19.5,176.7,19.5
	c7.4,0,9.3-1.9,9.3-9.8v-3.9c0-5.8-39.1-52.7-48.4-74.1c-11.2-25.4-27.9-56.6-40.9-81.9c-13,1.9-24.2,21.5-39.1,29.3
	C1155.2,1145,1118,1162.6,1118,1170.4"/>
<path class="st2" d="M785,797.8c0-17.6,20.5-52.7,27.9-64.4l-39.1-25.4c0,1.9-65.1,120.9-74.4,146.3
	c-16.7,46.8-35.3,126.8-35.3,187.3v70.2c0,78,42.8,204.8,72.6,253.6c44.7,76.1,85.6,119,137.7,185.3c14.9,17.6,57.7,78,67,97.5
	c14.9,29.3,44.7,74.1,55.8,103.4c11.2,29.3,39.1,93.6,42.8,122.9c1.9,19.5,20.5,124.8,26,134.6c39.1,0,78.1,0,117.2,0
	c16.7,0,42.8,0,57.7,1.9c35.4,3.9,22.3-9.8,40.9-9.8c0,0,13,7.8,24.2,9.8c9.3,0,20.5-1.9,29.8-1.9c22.3,0,42.8,0,65.1,0
	c39.1,0,91.1,11.7,106-11.7c0-46.8,13-107.3,22.3-142.4c7.4-23.4,14.9-41,20.5-62.4c7.4-21.5,16.7-37.1,24.2-56.6
	c20.5-60.5,93-146.3,130.2-193.1c14.9-17.6,26-25.4,40.9-41c14.9-13.7,22.3-29.3,37.2-44.9c20.5-23.4,48.4-64.4,63.2-97.5
	c3.7-7.8,20.5-48.8,26-54.6c11.2-19.5,14.9-37.1,22.3-60.5c9.3-35.1,22.3-93.6,22.3-138.5v-70.2c0-64.4-18.6-115.1-29.8-167.8
	l-48.4,11.7c9.3,39,24.2,83.9,24.2,132.6v39c0,23.4-9.3,44.9-13,64.4c-5.6,37.1-7.4,27.3-18.6,54.6c-11.2,29.3-39.1,64.4-78.1,64.4
	h-16.7v11.7c0,5.8,40.9,56.6,40.9,99.5v9.8c0,15.6-7.4,9.8-7.4,33.2c-16.7,11.7-11.2,23.4-42.8,37.1c-26,11.7-24.2,15.6-61.4,19.5
	c-78.1,9.8-65.1-7.8-126.5,29.3c-156.3,95.6-176.7-58.5-199.1-58.5h-3.7c-5.6,0-29.8,23.4-37.2,29.3c-14.9,9.8-20.5,19.5-14.9,42.9
	c3.7,27.3,0,99.5,0,130.7c0,85.8,9.3,175.6,5.6,253.6l-3.7,105.3l-9.3,7.8c-7.4-31.2-9.3-64.4-13-95.6c-5.6-33.2-7.4-54.6-13-87.8
	c-5.6-29.3-1.9-66.3-5.6-99.5c-3.7-27.3-13-62.4-13-89.7c0-46.8-26-158-3.7-181.4c16.7-15.6,107.9-78,107.9-95.6v-1.9
	c0-15.6-98.6-19.5-115.3-23.4c-27.9-5.9-94.9-9.8-126.5-11.7c-1.9-1.9-53.9-11.7-57.7-13.7c-9.3-1.9-20.5-3.9-27.9-5.8
	c-7.4-3.9-11.2-9.8-20.5-13.7c-24.2-7.8-24.2-13.6-39.1-29.3c-18.6-19.5-11.2-25.4-16.7-54.6c-26-5.9-39.1-5.9-65.1-13.7
	c-31.6-9.8-31.6-7.8-57.7-23.4c-26-11.7-78.1-46.8-78.1-80v-42.9c0-23.4,16.7-60.5,26-74.1c7.4-7.8,14.9-17.6,24.2-25.4
	c7.4-5.8,27.9-13.7,27.9-19.5c0-23.4-24.2-37.1-24.2-64.4L785,797.8L785,797.8z"/>
<path class="st3" d="M785,797.8c0-17.6,20.5-52.7,27.9-64.4l-39.1-25.4c0,1.9-65.1,120.9-74.4,146.3
	c-16.7,46.8-35.3,126.8-35.3,187.3v70.2c0,78,42.8,204.8,72.6,253.6c44.7,76.1,85.6,119,137.7,185.3c14.9,17.6,57.7,78,67,97.5
	c14.9,29.3,44.7,74.1,55.8,103.4c11.2,29.3,39.1,93.6,42.8,122.9c1.9,19.5,20.5,124.8,26,134.6c39.1,0,78.1,0,117.2,0
	c16.7,0,42.8,0,57.7,1.9c35.4,3.9,22.3-9.8,40.9-9.8c0,0,13,7.8,24.2,9.8c9.3,0,20.5-1.9,29.8-1.9c22.3,0,42.8,0,65.1,0
	c39.1,0,91.1,11.7,106-11.7c0-46.8,13-107.3,22.3-142.4c7.4-23.4,14.9-41,20.5-62.4c7.4-21.5,16.7-37.1,24.2-56.6
	c20.5-60.5,93-146.3,130.2-193.1c14.9-17.6,26-25.4,40.9-41c14.9-13.7,22.3-29.3,37.2-44.9c20.5-23.4,48.4-64.4,63.2-97.5
	c3.7-7.8,20.5-48.8,26-54.6c11.2-19.5,14.9-37.1,22.3-60.5c9.3-35.1,22.3-93.6,22.3-138.5v-70.2c0-64.4-18.6-115.1-29.8-167.8
	l-48.4,11.7c9.3,39,24.2,83.9,24.2,132.6v39c0,23.4-9.3,44.9-13,64.4c-5.6,37.1-7.4,27.3-18.6,54.6c-11.2,29.3-39.1,64.4-78.1,64.4
	h-16.7v11.7c0,5.8,40.9,56.6,40.9,99.5v9.8c0,15.6-7.4,9.8-7.4,33.2c-16.7,11.7-11.2,23.4-42.8,37.1c-26,11.7-24.2,15.6-61.4,19.5
	c-78.1,9.8-65.1-7.8-126.5,29.3c-156.3,95.6-176.7-58.5-199.1-58.5h-3.7c-5.6,0-29.8,23.4-37.2,29.3c-14.9,9.8-20.5,19.5-14.9,42.9
	c3.7,27.3,0,99.5,0,130.7c0,85.8,9.3,175.6,5.6,253.6l-3.7,105.3l-9.3,7.8c-7.4-31.2-9.3-64.4-13-95.6c-5.6-33.2-7.4-54.6-13-87.8
	c-5.6-29.3-1.9-66.3-5.6-99.5c-3.7-27.3-13-62.4-13-89.7c0-46.8-26-158-3.7-181.4c16.7-15.6,107.9-78,107.9-95.6v-1.9
	c0-15.6-98.6-19.5-115.3-23.4c-27.9-5.9-94.9-9.8-126.5-11.7c-1.9-1.9-53.9-11.7-57.7-13.7c-9.3-1.9-20.5-3.9-27.9-5.8
	c-7.4-3.9-11.2-9.8-20.5-13.7c-24.2-7.8-24.2-13.6-39.1-29.3c-18.6-19.5-11.2-25.4-16.7-54.6c-26-5.9-39.1-5.9-65.1-13.7
	c-31.6-9.8-31.6-7.8-57.7-23.4c-26-11.7-78.1-46.8-78.1-80v-42.9c0-23.4,16.7-60.5,26-74.1c7.4-7.8,14.9-17.6,24.2-25.4
	c7.4-5.8,27.9-13.7,27.9-19.5c0-23.4-24.2-37.1-24.2-64.4L785,797.8L785,797.8z"/>
<path class="st4" d="M965.5,2057.9c5.6,7.8,9.3,13.6,22.3,13.6h599c9.3,0,18.6-3.9,18.6-13.6c0-11.7-18.6-21.5-31.6-21.5H999
	C982.2,2036.5,971.1,2046.2,965.5,2057.9"/>
<path class="st4" d="M969.2,2225.7c22.3,5.9,122.8-13.6,158.1-17.6c33.5-1.9,57.7-5.9,83.7-7.8c26-3.9,53.9-9.8,78.1-11.7
	c57.7-1.9,106-13.6,163.7-17.6c27.9-3.9,152.5-7.8,152.5-29.3c0-31.2-133.9-5.9-158.1-1.9c-20.5,3.9-65.1,7.8-87.4,7.8
	c-31.6,0-53.9,9.8-80,13.6c-57.7,5.9-113.5,5.9-169.3,17.6C1064.1,2188.6,969.2,2173,969.2,2225.7"/>
<path class="st4" d="M993.4,2370c3.7,0,70.7-11.7,78.1-13.7c16.7-3.9,59.5-5.9,78.1-5.9c46.5-1.9,107.9-13.6,154.4-19.5
	c53.9-7.8,104.2-13.6,158.1-19.5c27.9-3.9,143.2-5.9,143.2-29.3c0-33.2-133.9-1.9-156.3,0c-57.7,3.9-113.5,7.8-167.4,17.6
	c-46.5,9.8-119.1,13.6-169.3,17.6c-33.5,3.9-143.2,7.8-143.2,42.9c0,5.9,1.9,9.8,9.3,9.8L993.4,2370L993.4,2370z"/>
<path class="st4" d="M1032.5,2440.2c7.4,1.9,7.4,1.9,16.7,1.9h506c7.4,0,9.3-1.9,9.3-9.8v-1.9c0-13.6-16.7-19.5-29.8-19.5h-479.9
	C1036.2,2411,1032.5,2420.7,1032.5,2440.2"/>
<path class="st4" d="M1112.4,2514.4c-7.4,0-5.6,1.9-11.2,5.9c7.4,13.6,46.5,54.6,67,54.6H1358c13,0,35.4-5.9,35.4-19.5v-3.9
	c0-17.6-89.3-9.8-109.8-9.8c-18.6,0-44.6,3.9-57.7-1.9c-13-5.9-24.2-25.4-33.5-25.4L1112.4,2514.4L1112.4,2514.4z"/>
<g>
	<g>
		<defs>
			<path id="SVGID_1_" d="M762.4,436.8l515.3,124.6l592.4-64.7l103.4,315.5c-210.7,136.2-420.5,95.9-660.3,106.8
				c-323.7-150.3-654-143.8-569.3-351.1C748.5,556.6,762.4,436.8,762.4,436.8"/>
		</defs>
		<clipPath id="SVGID_00000155862229350520184850000001606271605829793925_">
			<use xlink:href="#SVGID_1_"  style="overflow:visible;"/>
		</clipPath>
		
			<linearGradient id="SVGID_00000157295442358426592300000017504794489728735637_" gradientUnits="userSpaceOnUse" x1="730.4005" y1="1902.5398" x2="1973.4806" y2="1902.5398" gradientTransform="matrix(1 0 0 -1 0 2595.1396)">
			<stop  offset="0" style="stop-color:#000000"/>
			<stop  offset="0.65" style="stop-color:#3C3530"/>
			<stop  offset="0.87" style="stop-color:#352E29"/>
			<stop  offset="1" style="stop-color:#70706F"/>
		</linearGradient>
		
			<rect x="659.2" y="436.8" style="clip-path:url(#SVGID_00000155862229350520184850000001606271605829793925_);fill:url(#SVGID_00000157295442358426592300000017504794489728735637_);" width="1314.3" height="511.5"/>
	</g>
</g>
<path class="st6" d="M762.4,436.8l515.3,124.6l592.4-64.7l103.4,315.5c-210.7,136.2-420.5,95.9-660.3,106.8
	c-323.7-150.3-654-143.8-569.3-351.1C748.5,556.6,762.4,436.8,762.4,436.8z"/>
</svg>
