<?xml version="1.0" encoding="utf-8"?>
<!-- Generator: Adobe Illustrator 27.2.0, SVG Export Plug-In . SVG Version: 6.00 Build 0)  -->
<svg version="1.1" id="Capa_1" xmlns="http://www.w3.org/2000/svg" xmlns:xlink="http://www.w3.org/1999/xlink" x="0px" y="0px"
	 viewBox="0 0 3756.92 3281.04" style="enable-background:new 0 0 3756.92 3281.04;" xml:space="preserve">
<style type="text/css">
	.st0{fill-rule:evenodd;clip-rule:evenodd;}
	.st1{fill-rule:evenodd;clip-rule:evenodd;fill:#7C6EB0;}
	.st2{fill-rule:evenodd;clip-rule:evenodd;fill:#FFFFFF;}
	.st3{fill:none;stroke:#FFFFFF;stroke-width:1.0001;stroke-miterlimit:22.9256;}
	.st4{fill-rule:evenodd;clip-rule:evenodd;fill:#E30613;}
	
		.st5{clip-path:url(#SVGID_00000154391928219474972300000000556558928746094761_);fill:url(#SVGID_00000134969406072107959190000007697983903611274373_);}
	.st6{fill:none;stroke:#000000;stroke-width:0.216;stroke-miterlimit:22.9256;}
</style>
<path class="st0" d="M2199.76,587.26L2199.76,587.26c0-21.46,39.07-25.36,61.39-25.36h9.3c61.39,0,135.8,13.65,159.98,50.72
	c70.69,0,163.7,23.41,232.53,31.21c40.92,5.85,65.11,11.7,107.89,19.51c29.76,3.9,81.85,11.7,107.89,19.51
	c76.27,25.36,392.51,62.42,407.39,122.89h27.9l180.44-7.8l11.16,3.9l174.86,3.9c-5.58-5.85-619.46-216.52-677.13-234.08
	c-115.33-33.16-226.95-81.93-338.56-115.09c-52.09-15.61-316.24-113.14-338.56-113.14c-57.67,0-126.5,5.85-184.16,11.7
	c-48.37,5.85-128.36,13.65-174.86,23.41c-52.09,11.7-117.2,17.55-167.42,27.31c-50.23,9.75-120.92,19.51-163.7,35.11
	c-24.18,7.8-53.95,9.75-79.99,17.56c-22.32,9.75-55.81,15.61-78.13,21.46c-42.79,11.7-109.75,33.16-146.96,50.72
	c-22.32,11.7-48.37,17.56-70.69,27.31c-24.18,13.65-44.65,21.46-66.97,33.16c-29.76,15.61-106.03,56.57-120.92,78.02
	c40.93,3.9,135.8,9.75,182.3,9.75c65.11,1.95,132.08,17.56,193.47,19.51c57.67,3.9,124.64,23.41,180.44,33.16
	c53.95,7.8,119.05,25.36,173,39.01c22.32,5.85,33.48,1.95,24.18,21.46c-5.58,11.7-5.58,33.16-7.44,46.82
	c-5.58,29.26-9.3,66.32-14.88,95.58c-3.72,19.51-31.62,50.72-42.79,66.32c-16.74,19.51-26.04,46.81-40.93,66.32
	c-22.32,31.21-48.37,113.14-61.39,158c-14.88,52.67-26.04,118.99-26.04,189.21c0,97.53,29.77,218.47,59.53,286.74
	c18.6,42.91,37.21,72.17,59.53,113.14c11.16,17.56,61.39,66.32,79.99,89.73c46.51,62.42,102.31,130.69,139.52,202.87
	c24.18,42.91,31.62,74.12,44.65,128.74c5.58,23.41,29.76,128.74,29.76,144.35c0,3.9-13.02,9.75-18.6,13.65
	c-5.58,3.9-7.44,11.7-9.3,17.56c9.3,19.51,27.9,46.81,24.18,76.08c-1.86,17.56-1.86,29.26-3.72,48.77c0,15.6-9.3,27.31-9.3,39.01
	v25.36l-11.16,1.95c7.44,17.56,18.6,29.26,18.6,48.77v9.75c0,31.21-22.32,31.21-22.32,68.27c0,1.95,27.9,81.93,29.76,83.88
	c14.88,17.55,39.07,37.06,57.67,52.67c39.07,35.11,72.55,68.27,117.2,99.48c31.62,0,39.06,13.65,57.67,27.31h16.74
	c9.3,5.85,11.16,15.6,26.04,15.6h83.71c13.02,0,72.55-39.01,89.29-44.86c22.32-9.75,55.81-39.01,74.41-54.62
	c31.62-27.31,35.34-37.06,76.27-56.57c35.35-17.56,37.21-44.86,37.21-87.78v-48.77c0-21.46,16.74-25.36,22.32-39.01
	c7.44-19.51,3.72-29.26,3.72-50.72c-11.16-7.8-20.46-11.7-22.32-29.26h3.72l-5.58-72.17c-1.86-13.65,7.44-25.36,7.44-42.91v-5.85
	c0-15.61-9.3-17.56-9.3-39.01v-1.95c0-7.8,13.02-17.56,13.02-37.06c0-11.7-14.88-37.06-14.88-50.72v-15.61
	c0-89.73,52.09-202.87,83.71-265.29c13.02-27.31,48.37-81.93,68.83-103.38c42.78-54.62,117.19-109.24,150.68-163.85
	c35.35-58.52,72.55-134.59,85.57-202.87c7.44-31.21,24.18-95.58,24.18-124.84v-120.94c0-58.52-50.23-220.42-74.41-257.48
	c-9.3-15.61-16.74-39.01-18.6-62.42c0-5.85-14.88-54.62-16.74-66.32c-11.16-44.86-27.9-76.07-37.2-122.89l299.5-37.06v3.9
	c-18.6-27.31-340.42-95.58-403.67-101.43c-31.62-3.9-72.55-13.65-107.89-19.51c-29.76-5.85-78.13-11.7-106.03-19.51
	c-27.9-7.8-187.88-33.16-217.65-33.16c-7.44,0-13.02,7.8-27.9,7.8h-44.65C2300.21,641.88,2199.76,616.52,2199.76,587.26
	 M1857.48,1141.24L1857.48,1141.24c0-17.56,20.46-52.67,27.9-64.37l-39.07-25.36c0,1.95-65.11,120.94-74.41,146.3
	c-16.74,46.82-35.34,126.79-35.34,187.26v70.22c0,78.03,42.79,204.82,72.55,253.58c44.65,76.07,85.57,118.99,137.66,185.31
	c14.88,17.56,57.67,78.03,66.97,97.53c14.88,29.26,44.65,74.12,55.81,103.38c11.16,29.26,39.06,93.63,42.79,122.89
	c1.86,19.51,20.46,124.84,26.04,134.59c39.06,0,78.13,0,117.19,0c16.74,0,42.79,0,57.67,1.95c35.35,3.9,22.32-9.75,40.93-9.75
	c0,0,13.02,7.8,24.18,9.75c9.3,0,20.46-1.95,29.76-1.95c22.32,0,42.79,0,65.11,0c39.06,0,91.15,11.7,106.03-11.7
	c0-46.82,13.02-107.28,22.32-142.4c7.44-23.41,14.88-40.96,20.46-62.42c7.44-21.46,16.74-37.06,24.18-56.57
	c20.46-60.47,93.01-146.3,130.22-193.11c14.88-17.56,26.04-25.36,40.93-40.96c14.88-13.65,22.32-29.26,37.21-44.86
	c20.46-23.41,48.37-64.37,63.25-97.53c3.72-7.8,20.46-48.77,26.04-54.62c11.16-19.51,14.88-37.06,22.32-60.47
	c9.3-35.11,22.32-93.63,22.32-138.5v-70.22c0-64.37-18.6-115.09-29.76-167.75l-48.37,11.7c9.3,39.01,24.18,83.88,24.18,132.64v39.01
	c0,23.41-9.3,44.86-13.02,64.37c-5.58,37.06-7.44,27.31-18.6,54.62c-11.16,29.26-39.07,64.37-78.13,64.37h-16.74v11.7
	c0,5.85,40.92,56.57,40.92,99.48v9.75c0,15.61-7.44,9.75-7.44,33.16c-16.74,11.7-11.16,23.41-42.79,37.06
	c-26.04,11.7-24.18,15.6-61.39,19.51c-78.13,9.75-65.11-7.8-126.5,29.26c-156.26,95.58-176.72-58.52-199.05-58.52h-3.72
	c-5.58,0-29.76,23.41-37.21,29.26c-14.88,9.75-20.46,19.51-14.88,42.91c3.72,27.31,0,99.48,0,130.69c0,85.83,9.3,175.56,5.58,253.58
	l-3.72,105.34l-9.3,7.8c-7.44-31.21-9.3-64.37-13.02-95.58c-5.58-33.16-7.44-54.62-13.02-87.78c-5.58-29.26-1.86-66.32-5.58-99.48
	c-3.72-27.31-13.02-62.42-13.02-89.73c0-46.82-26.04-158-3.72-181.41c16.74-15.61,107.89-78.02,107.89-95.58v-1.95
	c0-15.6-98.59-19.51-115.33-23.41c-27.9-5.85-94.87-9.75-126.5-11.7c-1.86-1.95-53.95-11.7-57.67-13.65
	c-9.3-1.95-20.46-3.9-27.9-5.85c-7.44-3.9-11.16-9.75-20.46-13.65c-24.18-7.8-24.18-13.65-39.06-29.26
	c-18.6-19.51-11.16-25.36-16.74-54.62c-26.04-5.85-39.06-5.85-65.11-13.66c-31.62-9.75-31.62-7.8-57.67-23.41
	c-26.04-11.7-78.13-46.82-78.13-79.98v-42.91c0-23.41,16.74-60.47,26.04-74.12c7.44-7.8,14.88-17.56,24.18-25.36
	c7.44-5.85,27.9-13.65,27.9-19.51c0-23.41-24.18-37.06-24.18-64.37V1141.24z M2071.4,1135.39L2071.4,1135.39l-143.24-44.86
	c-9.3,5.85-27.9,31.21-27.9,46.82v27.31c0,17.56,13.02,54.62,27.9,54.62c0,0,57.67-23.41,57.67-27.31
	c0-13.65-11.16-13.65-11.16-31.21v-3.9c0-11.7,3.72-9.75,5.58-21.46c27.9,0,7.44,17.56,22.32,37.06
	c7.44,13.65,14.88,21.46,24.18,37.06l-7.44,9.75h-29.76c-11.16,7.8-35.35,33.16-37.21,52.67l-42.78,1.95
	c-16.74,11.7-29.76,23.41-40.93,42.91c-3.72,9.75-22.32,54.62-22.32,64.37c0,52.67,102.31,99.48,161.84,95.58l158.12-5.85h27.9
	c104.17,0,57.67-181.41,171.14-214.57c-1.86-21.46-40.93-27.31-57.67-40.96c-37.2-29.26-3.72-19.51-63.25-37.06
	c-24.18-5.85-52.09-15.61-78.13-21.46c-14.88-1.95-76.27-25.36-76.27-5.85v3.9c0,25.36,74.41,40.96,74.41,54.62
	c0,1.95-40.92,66.32-46.51,78.03c-7.44,17.55-3.72,37.06-29.76,33.16c-20.46-3.9-33.48-7.8-52.09-1.95c-1.86,1.95-3.72,7.8-3.72,7.8
	c0,13.65,18.6,27.31,27.9,33.16c18.6,0,48.37-7.8,70.69-5.85c18.6,0,61.39,15.61,63.25,15.61c14.88,0,13.02-99.48,57.67-99.48
	c16.74,0-5.58,52.67-11.16,66.32c-7.44,23.41-11.16,60.47-31.62,70.22l-130.22-17.56h-22.32c-14.88,0-16.74,5.85-29.76,5.85
	c-7.44,0-7.44-1.95-13.02-5.85c0-35.11-27.9-56.57-27.9-74.12c0-11.7,22.32-39.01,33.48-39.01h16.74l42.79,7.8l13.02-17.56
	l3.72-27.31l-16.74-13.65C2155.12,1242.68,2047.22,1190.01,2071.4,1135.39z M2302.07,1426.04L2302.07,1426.04v7.8
	c0,31.21,93.01,163.85,128.36,163.85h20.46c11.16,0,20.46-19.51,42.78-19.51v11.7c0,23.41-18.6,52.67-18.6,83.88v50.72
	c0,31.21,35.34,70.22,66.97,70.22h3.72c31.62,0,57.67-23.41,70.69-40.96c16.74-23.41,52.09,0,85.57,0
	c37.21,0,70.69-21.46,70.69-60.47c0-54.62-42.78-124.84-42.78-150.2c0-29.26,74.41-35.11,100.45-56.57
	c24.18-17.56,46.51-72.17,46.51-115.09v-44.86c0-31.21-14.88-68.27-16.74-91.68l-61.39,11.7c0,9.75-1.86,23.41-7.44,23.41
	c-9.3,0-9.3-5.85-22.32-5.85l-22.32-1.95l-33.48,3.9c-1.86-5.85-1.86-11.7-11.16-11.7h-46.5c1.86,31.21,53.95,68.27,66.97,99.48
	c-18.6,13.65-65.11,56.57-66.97,85.83c35.34,0,53.95-60.47,117.19-60.47h1.86c9.3,0,9.3,5.85,13.02,11.7
	c-11.16,23.41-59.53,15.61-87.43,72.17c-13.02,27.31-13.02,29.26-20.46,62.42c-5.58,19.51-7.44,54.62-14.88,68.27l-52.09-3.9h-5.58
	c-5.58,0-42.79,29.26-42.79,29.26c-5.58,0-9.3-1.95-9.3-5.85c0-19.51,9.3-27.31,9.3-35.11c0-37.06-33.48-50.72-33.48-103.38
	c-1.86-1.95-7.44-5.85-9.3-7.8l-48.37,7.8c-22.32,3.9-53.95-29.26-61.39-44.86c14.88-31.21,9.3-29.26,31.62-56.57
	c7.44-9.75,39.07-35.11,53.95-37.06c1.86-7.8,1.86-5.85,1.86-11.7c0-25.36-11.16-13.65-9.3-50.72c3.72-1.95,9.3-3.9,9.3-3.9
	c14.88,0,24.18,25.36,29.76,39.01c7.44,15.61,22.32,31.21,22.32,46.82h-9.3c-3.72,0-14.88-7.8-20.46-11.7
	c-22.32,3.9-20.46,13.65-31.62,31.21c-3.72,7.8-26.04,35.11-26.04,39.01v5.85c0,7.8,11.16,19.51,18.6,19.51h5.58
	c9.3,0,48.37-39.01,66.97-39.01c18.6,0,24.18,64.37,29.76,83.88c11.16,46.81,3.72,54.62,40.93,74.12c5.58-3.9,18.6-7.8,18.6-15.61
	c0-19.51-18.6-44.86-18.6-81.93c0-46.81,27.9-76.07,37.21-115.09l-40.93-91.68h-14.88c-18.6,0-59.53-5.85-78.13-9.75
	c-18.6-3.9-50.23-17.56-68.83-17.56c-11.16,0-37.21,35.11-44.65,44.86c-1.86,3.9-44.65,25.36-55.81,35.11
	C2329.98,1330.46,2302.07,1371.42,2302.07,1426.04z M2190.46,1513.82L2190.46,1513.82c0-7.8,37.21-25.36,46.51-31.21
	c14.88-7.8,26.04-27.31,39.07-29.26c13.02,25.36,29.76,56.57,40.93,81.93c9.3,21.46,48.37,68.27,48.37,74.12v3.9
	c0,7.8-1.86,9.75-9.3,9.75c-55.81,0-124.64-19.51-176.72-19.51c-33.48,0-143.24-23.41-143.24-50.72v-3.9
	c0-29.26,42.79-35.11,72.55-35.11c35.34,0,100.45,66.32,143.24,66.32c13.02,0,31.62-9.75,31.62-21.46v-3.9
	c0-7.8-3.72-5.85-7.44-11.7C2251.85,1543.07,2190.46,1533.32,2190.46,1513.82z M2037.92,2401.35L2037.92,2401.35
	c5.58-11.7,16.74-21.46,33.48-21.46h574.81c13.02,0,31.62,9.75,31.62,21.46c0,9.75-9.3,13.65-18.6,13.65h-599
	C2047.22,2415.01,2043.5,2409.16,2037.92,2401.35z M2041.64,2569.11L2041.64,2569.11c0-52.67,94.87-37.06,141.38-46.82
	c55.81-11.7,111.61-11.7,169.28-17.56c26.04-3.9,48.37-13.65,79.99-13.65c22.32,0,66.97-3.9,87.43-7.8
	c24.18-3.9,158.12-29.26,158.12,1.95c0,21.46-124.64,25.36-152.54,29.26c-57.67,3.9-106.03,15.6-163.7,17.56
	c-24.18,1.95-52.09,7.8-78.13,11.7c-26.04,1.95-50.23,5.85-83.71,7.8C2164.42,2555.45,2063.96,2574.96,2041.64,2569.11z
	 M2065.82,2713.46L2065.82,2713.46h-14.88c-7.44,0-9.3-3.9-9.3-9.75c0-35.11,109.75-39.01,143.24-42.91
	c50.23-3.9,122.78-7.8,169.28-17.56c53.95-9.75,109.75-13.65,167.42-17.56c22.32-1.95,156.26-33.16,156.26,0
	c0,23.41-115.33,25.36-143.24,29.26c-53.95,5.85-104.17,11.7-158.12,19.51c-46.51,5.85-107.89,17.56-154.4,19.51
	c-18.6,0-61.39,1.95-78.13,5.85C2136.51,2701.75,2069.54,2713.46,2065.82,2713.46z M2127.21,2754.42L2127.21,2754.42h479.94
	c13.02,0,29.76,5.85,29.76,19.51v1.95c0,7.8-1.86,9.75-9.3,9.75h-505.98c-9.3,0-9.3,0-16.74-1.95
	C2104.89,2764.17,2108.61,2754.42,2127.21,2754.42z M2173.72,2863.65c5.58-3.9,3.72-5.85,11.16-5.85h79.99
	c9.3,0,20.46,19.51,33.48,25.36c13.02,5.85,39.07,1.95,57.67,1.95c20.46,0,109.76-7.8,109.76,9.75v3.9
	c0,13.65-22.32,19.51-35.35,19.51h-189.74C2220.22,2918.27,2181.16,2877.31,2173.72,2863.65z"/>
<path class="st0" d="M2209.06,587.26c16.74,23.41,78.13,44.86,117.2,44.86h42.79c29.76,0,29.76-7.8,48.37-13.65
	c-1.86-31.21-87.43-46.82-124.64-46.82h-46.51C2229.52,571.66,2216.5,577.51,2209.06,587.26"/>
<path class="st1" d="M1900.26,1137.34v27.31c0,17.56,13.02,54.62,27.9,54.62c0,0,57.67-23.41,57.67-27.31
	c0-13.65-11.16-13.65-11.16-31.21v-3.9c0-11.7,3.72-9.75,5.58-21.46c27.9,0,7.44,17.56,22.32,37.06
	c7.44,13.65,14.88,21.46,24.18,37.06l-7.44,9.75h-29.76c-11.16,7.8-35.35,33.16-37.21,52.67l-42.78,1.95
	c-16.74,11.7-29.76,23.41-40.93,42.91c-3.72,9.75-22.32,54.62-22.32,64.37c0,52.67,102.31,99.48,161.84,95.58l158.12-5.85h27.9
	c104.17,0,57.67-181.41,171.14-214.57c-1.86-21.46-40.93-27.31-57.67-40.96c-37.2-29.26-3.72-19.51-63.25-37.06
	c-24.18-5.85-52.09-15.61-78.13-21.46c-14.88-1.95-76.27-25.36-76.27-5.85v3.9c0,25.36,74.41,40.96,74.41,54.62
	c0,1.95-40.92,66.32-46.51,78.03c-7.44,17.55-3.72,37.06-29.76,33.16c-20.46-3.9-33.48-7.8-52.09-1.95c-1.86,1.95-3.72,7.8-3.72,7.8
	c0,13.65,18.6,27.31,27.9,33.16c18.6,0,48.37-7.8,70.69-5.85c18.6,0,61.39,15.61,63.25,15.61c14.88,0,13.02-99.48,57.67-99.48
	c16.74,0-5.58,52.67-11.16,66.32c-7.44,23.41-11.16,60.47-31.62,70.22l-130.22-17.56h-22.32c-14.88,0-16.74,5.85-29.76,5.85
	c-7.44,0-7.44-1.95-13.02-5.85c0-35.11-27.9-56.57-27.9-74.12c0-11.7,22.32-39.01,33.48-39.01h16.74l42.79,7.8l13.02-17.56
	l3.72-27.31l-16.74-13.65c76.27,17.56-31.62-35.11-7.44-89.73l-143.24-44.86C1918.86,1096.38,1900.26,1121.74,1900.26,1137.34"/>
<path class="st0" d="M2501.12,630.18c-9.3-1.95-59.53-11.7-61.39-11.7h-7.44c-7.44,0-9.3,5.85-11.16,9.75
	c37.21,0,109.76,15.6,146.96,21.46c46.51,7.8,98.59,13.65,141.38,23.41c33.48,9.75,107.89,21.46,143.24,25.36
	c42.79,5.85,93.01,17.56,139.52,27.31c42.78,7.8,239.97,52.67,258.57,74.12c11.16,13.65,5.58,132.64-5.58,150.2
	c-3.72,5.85-35.35,5.85-48.37,37.06c-13.02,25.36-7.44,40.96,5.58,60.47c0,56.57-16.74,134.59-24.18,191.16
	c-1.86,33.16-7.44,58.52-13.02,91.68c-1.86,13.65-22.32,79.98-5.58,79.98c5.58,0,5.58-3.9,7.44-9.75l7.44,7.8l7.44-9.75l20.46,1.95
	l5.58-13.65l5.58,21.46c11.16-7.8,11.16-60.47,11.16-81.93h3.72v83.88l13.02-5.85c33.48,21.46-1.86-79.98,13.02-105.33l7.44,101.43
	h9.3v15.61c13.02,0,11.16,0,11.16-15.61l7.44,15.61h11.16l3.72-15.61c5.58,7.8,9.3,19.51,18.6,19.51c11.16,0,0-23.41,0-35.11
	c11.16,15.6,5.58,35.11,33.48,35.11c0-25.36-16.74-58.52-18.6-89.73c-3.72-27.31-13.02-62.42-14.88-93.63
	c-5.58-46.81-18.6-138.49-27.9-185.31c27.9-42.91,13.02-74.12-24.18-95.58c0-136.54,52.09-165.8-87.43-195.06
	c-76.27-17.56-161.84-42.91-239.97-54.62c-39.07-7.8-83.71-19.51-122.78-25.36c-37.21-7.8-93.01-13.65-126.5-23.41
	c-39.06-9.75-89.29-9.75-126.5-21.46C2551.35,632.13,2521.58,634.08,2501.12,630.18"/>
<path class="st1" d="M2302.07,1426.04v7.8c0,31.21,93.01,163.85,128.36,163.85h20.46c11.16,0,20.46-19.51,42.78-19.51v11.7
	c0,23.41-18.6,52.67-18.6,83.88v50.72c0,31.21,35.34,70.22,66.97,70.22h3.72c31.62,0,57.67-23.41,70.69-40.96
	c16.74-23.41,52.09,0,85.57,0c37.21,0,70.69-21.46,70.69-60.47c0-54.62-42.78-124.84-42.78-150.2c0-29.26,74.41-35.11,100.45-56.57
	c24.18-17.56,46.51-72.17,46.51-115.09v-44.86c0-31.21-14.88-68.27-16.74-91.68l-61.39,11.7c0,9.75-1.86,23.41-7.44,23.41
	c-9.3,0-9.3-5.85-22.32-5.85l-22.32-1.95l-33.48,3.9c-1.86-5.85-1.86-11.7-11.16-11.7h-46.5c1.86,31.21,53.95,68.27,66.97,99.48
	c-18.6,13.65-65.11,56.57-66.97,85.83c35.34,0,53.95-60.47,117.19-60.47h1.86c9.3,0,9.3,5.85,13.02,11.7
	c-11.16,23.41-59.53,15.61-87.43,72.17c-13.02,27.31-13.02,29.26-20.46,62.42c-5.58,19.51-7.44,54.62-14.88,68.27l-52.09-3.9h-5.58
	c-5.58,0-42.79,29.26-42.79,29.26c-5.58,0-9.3-1.95-9.3-5.85c0-19.51,9.3-27.31,9.3-35.11c0-37.06-33.48-50.72-33.48-103.38
	c-1.86-1.95-7.44-5.85-9.3-7.8l-48.37,7.8c-22.32,3.9-53.95-29.26-61.39-44.86c14.88-31.21,9.3-29.26,31.62-56.57
	c7.44-9.75,39.07-35.11,53.95-37.06c1.86-7.8,1.86-5.85,1.86-11.7c0-25.36-11.16-13.65-9.3-50.72c3.72-1.95,9.3-3.9,9.3-3.9
	c14.88,0,24.18,25.36,29.76,39.01c7.44,15.61,22.32,31.21,22.32,46.82h-9.3c-3.72,0-14.88-7.8-20.46-11.7
	c-22.32,3.9-20.46,13.65-31.62,31.21c-3.72,7.8-26.04,35.11-26.04,39.01v5.85c0,7.8,11.16,19.51,18.6,19.51h5.58
	c9.3,0,48.37-39.01,66.97-39.01c18.6,0,24.18,64.37,29.76,83.88c11.16,46.81,3.72,54.62,40.93,74.12c5.58-3.9,18.6-7.8,18.6-15.61
	c0-19.51-18.6-44.86-18.6-81.93c0-46.81,27.9-76.07,37.21-115.09l-40.93-91.68h-14.88c-18.6,0-59.53-5.85-78.13-9.75
	c-18.6-3.9-50.23-17.56-68.83-17.56c-11.16,0-37.21,35.11-44.65,44.86c-1.86,3.9-44.65,25.36-55.81,35.11
	C2329.98,1330.46,2302.07,1371.42,2302.07,1426.04"/>
<path class="st1" d="M2190.46,1513.82c0,19.51,61.39,29.26,85.57,29.26c3.72,5.85,7.44,3.9,7.44,11.7v3.9
	c0,11.7-18.6,21.46-31.62,21.46c-42.79,0-107.89-66.32-143.24-66.32c-29.76,0-72.55,5.85-72.55,35.11v3.9
	c0,27.31,109.75,50.72,143.24,50.72c52.09,0,120.92,19.51,176.72,19.51c7.44,0,9.3-1.95,9.3-9.75v-3.9
	c0-5.85-39.06-52.67-48.37-74.12c-11.16-25.36-27.9-56.57-40.93-81.93c-13.02,1.95-24.18,21.46-39.07,29.26
	C2227.67,1488.46,2190.46,1506.01,2190.46,1513.82"/>
<path class="st2" d="M1857.48,1141.24c0-17.56,20.46-52.67,27.9-64.37l-39.07-25.36c0,1.95-65.11,120.94-74.41,146.3
	c-16.74,46.82-35.34,126.79-35.34,187.26v70.22c0,78.03,42.79,204.82,72.55,253.58c44.65,76.07,85.57,118.99,137.66,185.31
	c14.88,17.56,57.67,78.03,66.97,97.53c14.88,29.26,44.65,74.12,55.81,103.38c11.16,29.26,39.06,93.63,42.79,122.89
	c1.86,19.51,20.46,124.84,26.04,134.59c39.06,0,78.13,0,117.19,0c16.74,0,42.79,0,57.67,1.95c35.35,3.9,22.32-9.75,40.93-9.75
	c0,0,13.02,7.8,24.18,9.75c9.3,0,20.46-1.95,29.76-1.95c22.32,0,42.79,0,65.11,0c39.06,0,91.15,11.7,106.03-11.7
	c0-46.82,13.02-107.28,22.32-142.4c7.44-23.41,14.88-40.96,20.46-62.42c7.44-21.46,16.74-37.06,24.18-56.57
	c20.46-60.47,93.01-146.3,130.22-193.11c14.88-17.56,26.04-25.36,40.93-40.96c14.88-13.65,22.32-29.26,37.21-44.86
	c20.46-23.41,48.37-64.37,63.25-97.53c3.72-7.8,20.46-48.77,26.04-54.62c11.16-19.51,14.88-37.06,22.32-60.47
	c9.3-35.11,22.32-93.63,22.32-138.5v-70.22c0-64.37-18.6-115.09-29.76-167.75l-48.37,11.7c9.3,39.01,24.18,83.88,24.18,132.64v39.01
	c0,23.41-9.3,44.86-13.02,64.37c-5.58,37.06-7.44,27.31-18.6,54.62c-11.16,29.26-39.07,64.37-78.13,64.37h-16.74v11.7
	c0,5.85,40.92,56.57,40.92,99.48v9.75c0,15.61-7.44,9.75-7.44,33.16c-16.74,11.7-11.16,23.41-42.79,37.06
	c-26.04,11.7-24.18,15.6-61.39,19.51c-78.13,9.75-65.11-7.8-126.5,29.26c-156.26,95.58-176.72-58.52-199.05-58.52h-3.72
	c-5.58,0-29.76,23.41-37.21,29.26c-14.88,9.75-20.46,19.51-14.88,42.91c3.72,27.31,0,99.48,0,130.69c0,85.83,9.3,175.56,5.58,253.58
	l-3.72,105.34l-9.3,7.8c-7.44-31.21-9.3-64.37-13.02-95.58c-5.58-33.16-7.44-54.62-13.02-87.78c-5.58-29.26-1.86-66.32-5.58-99.48
	c-3.72-27.31-13.02-62.42-13.02-89.73c0-46.82-26.04-158-3.72-181.41c16.74-15.61,107.89-78.02,107.89-95.58v-1.95
	c0-15.6-98.59-19.51-115.33-23.41c-27.9-5.85-94.87-9.75-126.5-11.7c-1.86-1.95-53.95-11.7-57.67-13.65
	c-9.3-1.95-20.46-3.9-27.9-5.85c-7.44-3.9-11.16-9.75-20.46-13.65c-24.18-7.8-24.18-13.65-39.06-29.26
	c-18.6-19.51-11.16-25.36-16.74-54.62c-26.04-5.85-39.06-5.85-65.11-13.66c-31.62-9.75-31.62-7.8-57.67-23.41
	c-26.04-11.7-78.13-46.82-78.13-79.98v-42.91c0-23.41,16.74-60.47,26.04-74.12c7.44-7.8,14.88-17.56,24.18-25.36
	c7.44-5.85,27.9-13.65,27.9-19.51c0-23.41-24.18-37.06-24.18-64.37V1141.24z"/>
<path class="st3" d="M1857.48,1141.24c0-17.56,20.46-52.67,27.9-64.37l-39.07-25.36c0,1.95-65.11,120.94-74.41,146.3
	c-16.74,46.82-35.34,126.79-35.34,187.26v70.22c0,78.03,42.79,204.82,72.55,253.58c44.65,76.07,85.57,118.99,137.66,185.31
	c14.88,17.56,57.67,78.03,66.97,97.53c14.88,29.26,44.65,74.12,55.81,103.38c11.16,29.26,39.06,93.63,42.79,122.89
	c1.86,19.51,20.46,124.84,26.04,134.59c39.06,0,78.13,0,117.19,0c16.74,0,42.79,0,57.67,1.95c35.35,3.9,22.32-9.75,40.93-9.75
	c0,0,13.02,7.8,24.18,9.75c9.3,0,20.46-1.95,29.76-1.95c22.32,0,42.79,0,65.11,0c39.06,0,91.15,11.7,106.03-11.7
	c0-46.82,13.02-107.28,22.32-142.4c7.44-23.41,14.88-40.96,20.46-62.42c7.44-21.46,16.74-37.06,24.18-56.57
	c20.46-60.47,93.01-146.3,130.22-193.11c14.88-17.56,26.04-25.36,40.93-40.96c14.88-13.65,22.32-29.26,37.21-44.86
	c20.46-23.41,48.37-64.37,63.25-97.53c3.72-7.8,20.46-48.77,26.04-54.62c11.16-19.51,14.88-37.06,22.32-60.47
	c9.3-35.11,22.32-93.63,22.32-138.5v-70.22c0-64.37-18.6-115.09-29.76-167.75l-48.37,11.7c9.3,39.01,24.18,83.88,24.18,132.64v39.01
	c0,23.41-9.3,44.86-13.02,64.37c-5.58,37.06-7.44,27.31-18.6,54.62c-11.16,29.26-39.07,64.37-78.13,64.37h-16.74v11.7
	c0,5.85,40.92,56.57,40.92,99.48v9.75c0,15.61-7.44,9.75-7.44,33.16c-16.74,11.7-11.16,23.41-42.79,37.06
	c-26.04,11.7-24.18,15.6-61.39,19.51c-78.13,9.75-65.11-7.8-126.5,29.26c-156.26,95.58-176.72-58.52-199.05-58.52h-3.72
	c-5.58,0-29.76,23.41-37.21,29.26c-14.88,9.75-20.46,19.51-14.88,42.91c3.72,27.31,0,99.48,0,130.69c0,85.83,9.3,175.56,5.58,253.58
	l-3.72,105.34l-9.3,7.8c-7.44-31.21-9.3-64.37-13.02-95.58c-5.58-33.16-7.44-54.62-13.02-87.78c-5.58-29.26-1.86-66.32-5.58-99.48
	c-3.72-27.31-13.02-62.42-13.02-89.73c0-46.82-26.04-158-3.72-181.41c16.74-15.61,107.89-78.02,107.89-95.58v-1.95
	c0-15.6-98.59-19.51-115.33-23.41c-27.9-5.85-94.87-9.75-126.5-11.7c-1.86-1.95-53.95-11.7-57.67-13.65
	c-9.3-1.95-20.46-3.9-27.9-5.85c-7.44-3.9-11.16-9.75-20.46-13.65c-24.18-7.8-24.18-13.65-39.06-29.26
	c-18.6-19.51-11.16-25.36-16.74-54.62c-26.04-5.85-39.06-5.85-65.11-13.66c-31.62-9.75-31.62-7.8-57.67-23.41
	c-26.04-11.7-78.13-46.82-78.13-79.98v-42.91c0-23.41,16.74-60.47,26.04-74.12c7.44-7.8,14.88-17.56,24.18-25.36
	c7.44-5.85,27.9-13.65,27.9-19.51c0-23.41-24.18-37.06-24.18-64.37V1141.24z"/>
<path class="st4" d="M2037.92,2401.35c5.58,7.8,9.3,13.65,22.32,13.65h599c9.3,0,18.6-3.9,18.6-13.65c0-11.7-18.6-21.46-31.62-21.46
	H2071.4C2054.66,2379.9,2043.5,2389.65,2037.92,2401.35"/>
<path class="st4" d="M2041.64,2569.11c22.32,5.85,122.78-13.65,158.12-17.56c33.48-1.95,57.67-5.85,83.71-7.8
	c26.04-3.9,53.95-9.75,78.13-11.7c57.67-1.95,106.03-13.65,163.7-17.56c27.9-3.9,152.54-7.8,152.54-29.26
	c0-31.21-133.94-5.85-158.12-1.95c-20.46,3.9-65.11,7.8-87.43,7.8c-31.62,0-53.95,9.75-79.99,13.65
	c-57.67,5.85-113.47,5.85-169.28,17.56C2136.51,2532.05,2041.64,2516.44,2041.64,2569.11"/>
<path class="st4" d="M2065.82,2713.46c3.72,0,70.69-11.7,78.13-13.66c16.74-3.9,59.53-5.85,78.13-5.85
	c46.51-1.95,107.89-13.65,154.4-19.51c53.95-7.8,104.17-13.65,158.12-19.51c27.9-3.9,143.24-5.85,143.24-29.26
	c0-33.16-133.94-1.95-156.26,0c-57.67,3.9-113.47,7.8-167.42,17.56c-46.51,9.75-119.05,13.65-169.28,17.56
	c-33.48,3.9-143.24,7.8-143.24,42.91c0,5.85,1.86,9.75,9.3,9.75H2065.82z"/>
<path class="st4" d="M2104.89,2783.68c7.44,1.95,7.44,1.95,16.74,1.95h505.98c7.44,0,9.3-1.95,9.3-9.75v-1.95
	c0-13.65-16.74-19.51-29.76-19.51h-479.94C2108.61,2754.42,2104.89,2764.17,2104.89,2783.68"/>
<path class="st4" d="M2184.88,2857.8c-7.44,0-5.58,1.95-11.16,5.85c7.44,13.65,46.51,54.62,66.97,54.62h189.74
	c13.02,0,35.35-5.85,35.35-19.51v-3.9c0-17.56-89.29-9.75-109.76-9.75c-18.6,0-44.64,3.9-57.67-1.95
	c-13.02-5.85-24.18-25.36-33.48-25.36H2184.88z"/>
<g>
	<defs>
		<path id="SVGID_1_" d="M1834.8,780.28l515.3,124.57l592.45-64.71l103.37,315.47c-210.67,136.17-420.47,95.91-660.33,106.77
			c-323.72-150.26-654-143.81-569.3-351.06C1820.91,900.01,1834.8,780.28,1834.8,780.28"/>
	</defs>
	<clipPath id="SVGID_00000135690508970746198490000013620489553694406834_">
		<use xlink:href="#SVGID_1_"  style="overflow:visible;"/>
	</clipPath>
	
		<linearGradient id="SVGID_00000124882882392081246390000012021393156191641263_" gradientUnits="userSpaceOnUse" x1="1802.8403" y1="1036.0261" x2="3045.9204" y2="1036.0261">
		<stop  offset="0" style="stop-color:#000000"/>
		<stop  offset="0.65" style="stop-color:#3C3530"/>
		<stop  offset="0.87" style="stop-color:#352E29"/>
		<stop  offset="1" style="stop-color:#70706F"/>
	</linearGradient>
	
		<rect x="1731.59" y="780.28" style="clip-path:url(#SVGID_00000135690508970746198490000013620489553694406834_);fill:url(#SVGID_00000124882882392081246390000012021393156191641263_);" width="1314.33" height="511.5"/>
</g>
<path class="st6" d="M1834.8,780.28l515.3,124.57l592.45-64.71l103.37,315.47c-210.67,136.17-420.47,95.91-660.33,106.77
	c-323.72-150.26-654-143.81-569.3-351.06C1820.91,900.01,1834.8,780.28,1834.8,780.28z"/>
</svg>
