<?xml version="1.0" encoding="UTF-8"?>
<svg id="Capa_1" data-name="Capa 1" xmlns="http://www.w3.org/2000/svg" viewBox="0 0 1523.98 233">
  <defs>
    <style>
      .cls-1 {
        stroke-width: .5px;
      }

      .cls-1, .cls-2, .cls-3, .cls-4, .cls-5, .cls-6 {
        fill: none;
      }

      .cls-1, .cls-3, .cls-4, .cls-5, .cls-6 {
        stroke-miterlimit: 22.93;
      }

      .cls-1, .cls-6 {
        stroke: #271b0e;
      }

      .cls-2 {
        stroke-linejoin: round;
      }

      .cls-2, .cls-3 {
        stroke-width: 2px;
      }

      .cls-2, .cls-3, .cls-4, .cls-5 {
        stroke: #1d1d1b;
      }

      .cls-7 {
        fill: #271b0e;
      }

      .cls-4 {
        stroke-width: 1.2px;
      }

      .cls-5 {
        stroke-width: .22px;
      }

      .cls-8 {
        fill: #e20613;
      }

      .cls-6 {
        stroke-width: 1px;
      }

      .cls-9 {
        fill: #0a0c06;
      }

      .cls-10 {
        fill: #aec90b;
      }

      .cls-11 {
        fill: #1d1d1b;
      }
    </style>
  </defs>
  <path class="cls-11" d="m1508.66,99.23c-1.33,1.62-2.67,3.25-4,4.87-1.87,1.98-3.55,2.84-5.06,2.57,0-1.08,1.07-2.5,3.2-4.31,2.13-1.78,3.2-3.14,3.2-4.02,0-1.08-.75-2.12-2.27-3.11-8.17-5.55-15.19-8.32-21.06-8.32-2.49,0-4.84.41-7.06,1.22.89-1.99,3.2-3.11,6.93-3.39,13.42.63,22.12,5.46,26.12,14.49Z"/>
  <path class="cls-2" d="m1508.66,99.23c-1.33,1.62-2.67,3.25-4,4.87-1.87,1.98-3.55,2.84-5.06,2.57,0-1.08,1.07-2.5,3.2-4.31,2.13-1.78,3.2-3.14,3.2-4.02,0-1.08-.75-2.12-2.27-3.11-8.17-5.55-15.19-8.32-21.06-8.32-2.49,0-4.84.41-7.06,1.22.89-1.99,3.2-3.11,6.93-3.39,13.42.63,22.12,5.46,26.12,14.49Z"/>
  <path class="cls-11" d="m1518.98,168.27c0-7.67-3.06-15.34-9.2-23.01-2.31-2.98-8.44-9.3-18.39-18.95,2.67-3.61,6.58-8.03,11.73-13.27,7.91-7.94,12.17-12.23,12.79-12.86-1.42-2.53-2.84-5.05-4.26-7.58-1.78-2.89-3.78-5.19-6-6.9-6.4-4.96-13.91-7.45-22.52-7.45-7.02,0-13.28,1.76-18.79,5.28-5.06,3.25-9.11,7.78-12.13,13.61-3.02,5.82-4.53,11.84-4.53,18.07,0,7.13,3.06,14.39,9.2,21.79,5.77,5.96,11.55,11.91,17.33,17.87l-22.39,23.28c-.62,1.08-.93,2.17-.93,3.25,0,1.99.84,4.24,2.53,6.77,1.6,2.08,3.2,4.15,4.8,6.23,7.29,6.68,15.81,10.02,25.59,10.02,5.51,0,10.71-1.17,15.59-3.52,5.86-2.62,10.62-7.13,14.26-13.54,3.55-6.05,5.33-12.41,5.33-19.09Z"/>
  <path class="cls-2" d="m1518.98,168.27c0-7.67-3.06-15.34-9.2-23.01-2.31-2.98-8.44-9.3-18.39-18.95,2.67-3.61,6.58-8.03,11.73-13.27,7.91-7.94,12.17-12.23,12.79-12.86-1.42-2.53-2.84-5.05-4.26-7.58-1.78-2.89-3.78-5.19-6-6.9-6.4-4.96-13.91-7.45-22.52-7.45-7.02,0-13.28,1.76-18.79,5.28-5.06,3.25-9.11,7.78-12.13,13.61-3.02,5.82-4.53,11.84-4.53,18.07,0,7.13,3.06,14.39,9.2,21.79,5.77,5.96,11.55,11.91,17.33,17.87l-22.39,23.28c-.62,1.08-.93,2.17-.93,3.25,0,1.99.84,4.24,2.53,6.77,1.6,2.08,3.2,4.15,4.8,6.23,7.29,6.68,15.81,10.02,25.59,10.02,5.51,0,10.71-1.17,15.59-3.52,5.86-2.62,10.62-7.13,14.26-13.54,3.55-6.05,5.33-12.41,5.33-19.09Z"/>
  <path class="cls-11" d="m1521.64,178.69c-1.87,6.5-5.2,12.41-9.99,17.73-5.15,5.69-10.8,9.3-16.93,10.83-3.73.9-7.46,1.35-11.2,1.35-8.89,0-17.06-2.71-24.54-8.12-8-5.87-12.48-13.13-13.46-21.82l22.94-23.26c-8.88-9.02-14.75-15.7-17.59-20.04-5.33-8.03-7.64-16.2-6.93-24.5.62-7.94,3.66-15.34,9.13-22.2,5.46-6.86,11.93-11.33,19.39-13.4,3.64-.99,7.29-1.49,10.93-1.49,12.35,0,22.61,5.19,30.79,15.57,3.64,4.51,5.73,8.53,6.26,12.05l-23.86,24.5c8.53,7.94,14.57,14.44,18.13,19.49,5.51,7.85,8.26,15.66,8.26,23.42,0,3.25-.44,6.54-1.33,9.88Z"/>
  <path class="cls-2" d="m1521.64,178.69c-1.87,6.5-5.2,12.41-9.99,17.73-5.15,5.69-10.8,9.3-16.93,10.83-3.73.9-7.46,1.35-11.2,1.35-8.89,0-17.06-2.71-24.54-8.12-8-5.87-12.48-13.13-13.46-21.82l22.94-23.26c-8.88-9.02-14.75-15.7-17.59-20.04-5.33-8.03-7.64-16.2-6.93-24.5.62-7.94,3.66-15.34,9.13-22.2,5.46-6.86,11.93-11.33,19.39-13.4,3.64-.99,7.29-1.49,10.93-1.49,12.35,0,22.61,5.19,30.79,15.57,3.64,4.51,5.73,8.53,6.26,12.05l-23.86,24.5c8.53,7.94,14.57,14.44,18.13,19.49,5.51,7.85,8.26,15.66,8.26,23.42,0,3.25-.44,6.54-1.33,9.88Z"/>
  <path class="cls-11" d="m1427.64,205.09v-126.3h-40.78l-.53,76.35c-8.53-8.78-19.06-20.31-31.59-34.52-10.48-11.87-20.92-23.69-31.32-35.47v119.94h104.22Z"/>
  <path class="cls-2" d="m1427.64,205.09v-126.3h-40.78l-.53,76.35c-8.53-8.78-19.06-20.31-31.59-34.52-10.48-11.87-20.92-23.69-31.32-35.47v119.94h104.22Z"/>
  <polygon class="cls-11" points="1430.97 209.02 1320.08 209.02 1320.08 74.46 1382.32 145.12 1383.52 74.19 1430.97 74.19 1430.97 209.02"/>
  <polygon class="cls-2" points="1430.97 209.02 1320.08 209.02 1320.08 74.46 1382.32 145.12 1383.52 74.19 1430.97 74.19 1430.97 209.02"/>
  <path class="cls-11" d="m1299.17,204.55v-17.6h-71.17c-1.33-4.87-1.51-12.59-.53-23.15h25.32v-9.07h-25.72c-.62-1.99-1.02-4.33-1.2-7.04-.18-1.71-.22-4.2-.13-7.45.09-3.61.13-6.09.13-7.44l1.2-1.22h72.1v-53.34h-121.41v126.3h121.41Z"/>
  <path class="cls-2" d="m1299.17,204.55v-17.6h-71.17c-1.33-4.87-1.51-12.59-.53-23.15h25.32v-9.07h-25.72c-.62-1.99-1.02-4.33-1.2-7.04-.18-1.71-.22-4.2-.13-7.45.09-3.61.13-6.09.13-7.44l1.2-1.22h72.1v-53.34h-121.41v126.3h121.41Z"/>
  <path class="cls-11" d="m1303.3,135.51h-72.5c-.8,2.19-1.2,4.74-1.2,7.65s.4,5.37,1.2,7.38h25.72v16.92l-25.72,1.22v13.27l72.1.54v25.99h-128.88V73.65h128.88l.4,61.86Z"/>
  <path class="cls-2" d="m1303.3,135.51h-72.5c-.8,2.19-1.2,4.74-1.2,7.65s.4,5.37,1.2,7.38h25.72v16.92l-25.72,1.22v13.27l72.1.54v25.99h-128.88V73.65h128.88l.4,61.86Z"/>
  <rect class="cls-11" x="1102.8" y="77.84" width="46.78" height="126.98"/>
  <rect class="cls-2" x="1102.8" y="77.84" width="46.78" height="126.98"/>
  <polygon class="cls-11" points="1153.71 208.75 1099.07 208.75 1099.47 73.92 1153.71 73.92 1153.71 208.75"/>
  <polygon class="cls-2" points="1153.71 208.75 1099.07 208.75 1099.47 73.92 1153.71 73.92 1153.71 208.75"/>
  <path class="cls-11" d="m1070.56,117.78c.18,7.31-4.26,14.49-13.33,21.52-15.46,7.13-27.94,10.69-37.45,10.69h-5.46l-.53,46.7-1.2,1.22c-8.97.18-22.3.04-39.98-.41v-2.03l38.38-.41.53-47.52h6c15.02,0,28.88-4.11,41.58-12.32,2.31-2.08,4.35-4.83,6.13-8.26,1.42-3.07,2.8-6.14,4.13-9.21h1.2Z"/>
  <path class="cls-2" d="m1070.56,117.78c.18,7.31-4.26,14.49-13.33,21.52-15.46,7.13-27.94,10.69-37.45,10.69h-5.46l-.53,46.7-1.2,1.22c-8.97.18-22.3.04-39.98-.41v-2.03l38.38-.41.53-47.52h6c15.02,0,28.88-4.11,41.58-12.32,2.31-2.08,4.35-4.83,6.13-8.26,1.42-3.07,2.8-6.14,4.13-9.21h1.2Z"/>
  <path class="cls-11" d="m1076.96,110.35c-4.53-12.45-12.33-21.16-23.35-26.15-8.55-3.79-20.24-5.69-35.1-5.69-4.35,0-10.95.2-19.75.61-8.82.4-15.35.61-19.61.61-6.4,0-12.02-.41-16.82-1.22v125.35h60.11l.4-47.02c17.37.72,32.39-4.38,45.02-15.32,6.6-7.58,9.88-15.68,9.88-24.25,0-2.35-.27-4.65-.8-6.93Z"/>
  <path class="cls-2" d="m1076.96,110.35c-4.53-12.45-12.33-21.16-23.35-26.15-8.55-3.79-20.24-5.69-35.1-5.69-4.35,0-10.95.2-19.75.61-8.82.4-15.35.61-19.61.61-6.4,0-12.02-.41-16.82-1.22v125.35h60.11l.4-47.02c17.37.72,32.39-4.38,45.02-15.32,6.6-7.58,9.88-15.68,9.88-24.25,0-2.35-.27-4.65-.8-6.93Z"/>
  <path class="cls-11" d="m1080.16,106.68c.89,3.52,1.33,7.08,1.33,10.7,0,10.92-3.64,19.94-10.93,27.07-11.11,10.83-25.63,16.24-43.58,16.24l-.53,47.11-67.44.54V74.19c5.07.63,10.88.95,17.46.95,4.62,0,11.66-.23,21.12-.68,9.46-.45,16.5-.68,21.12-.68,15.19,0,27.28,1.99,36.25,5.96,11.46,5.05,19.86,14.03,25.19,26.94Z"/>
  <path class="cls-2" d="m1080.16,106.68c.89,3.52,1.33,7.08,1.33,10.7,0,10.92-3.64,19.94-10.93,27.07-11.11,10.83-25.63,16.24-43.58,16.24l-.53,47.11-67.44.54V74.19c5.07.63,10.88.95,17.46.95,4.62,0,11.66-.23,21.12-.68,9.46-.45,16.5-.68,21.12-.68,15.19,0,27.28,1.99,36.25,5.96,11.46,5.05,19.86,14.03,25.19,26.94Z"/>
  <polygon class="cls-11" points="948.78 204.14 886.47 83.57 817.68 204.41 948.78 204.14"/>
  <polygon class="cls-2" points="948.78 204.14 886.47 83.57 817.68 204.41 948.78 204.14"/>
  <path class="cls-11" d="m950.72,208.07l-144.87.41,75.7-133.61c9.6,17.42,21.24,39.48,34.92,66.19,22.83,44.67,34.25,67.01,34.25,67.01Z"/>
  <path class="cls-2" d="m950.72,208.07l-144.87.41,75.7-133.61c9.6,17.42,21.24,39.48,34.92,66.19,22.83,44.67,34.25,67.01,34.25,67.01Z"/>
  <path class="cls-11" d="m603.06,159.11c1.69-5.62,2.53-11.44,2.53-17.51,0-13.38-3.69-25.45-11.06-36.21-12.53-18-31.23-26.74-56.11-26.19-11.19,1.35-21.5,5.66-30.92,12.88-9.6,7.51-16.44,16.65-20.52,27.41-2.58,6.88-3.86,14.15-3.86,21.84,0,16.65,5.24,30.71,15.73,42.19,12.35,13.38,27.36,20.08,45.05,20.08,4.44,0,8.93-.45,13.46-1.35,10.22-2.17,19.59-7.31,28.12-15.41,8.53-8.08,14.39-17.33,17.59-27.73Z"/>
  <path class="cls-2" d="m603.06,159.11c1.69-5.62,2.53-11.44,2.53-17.51,0-13.38-3.69-25.45-11.06-36.21-12.53-18-31.23-26.74-56.11-26.19-11.19,1.35-21.5,5.66-30.92,12.88-9.6,7.51-16.44,16.65-20.52,27.41-2.58,6.88-3.86,14.15-3.86,21.84,0,16.65,5.24,30.71,15.73,42.19,12.35,13.38,27.36,20.08,45.05,20.08,4.44,0,8.93-.45,13.46-1.35,10.22-2.17,19.59-7.31,28.12-15.41,8.53-8.08,14.39-17.33,17.59-27.73Z"/>
  <path class="cls-11" d="m605.19,165.25c-3.47,10.31-9.95,19.38-19.46,27.23-9.51,7.87-19.55,12.61-30.12,14.24-3.73.54-7.42.81-11.06.81-12,0-23.06-2.98-33.19-8.93-10.13-5.98-18.26-14.33-24.39-25.09-5.33-9.3-8-20.22-8-32.78,0-11.3,2.27-21.14,6.8-29.53,6.04-11.21,14.28-20.06,24.72-26.58,10.44-6.5,21.79-9.75,34.05-9.75,10.93,0,21.15,2.53,30.65,7.58,9.51,5.08,17.28,12.16,23.32,21.28,7.64,11.39,11.46,24.16,11.46,38.35,0,8.48-1.6,16.22-4.8,23.17Z"/>
  <path class="cls-2" d="m605.19,165.25c-3.47,10.31-9.95,19.38-19.46,27.23-9.51,7.87-19.55,12.61-30.12,14.24-3.73.54-7.42.81-11.06.81-12,0-23.06-2.98-33.19-8.93-10.13-5.98-18.26-14.33-24.39-25.09-5.33-9.3-8-20.22-8-32.78,0-11.3,2.27-21.14,6.8-29.53,6.04-11.21,14.28-20.06,24.72-26.58,10.44-6.5,21.79-9.75,34.05-9.75,10.93,0,21.15,2.53,30.65,7.58,9.51,5.08,17.28,12.16,23.32,21.28,7.64,11.39,11.46,24.16,11.46,38.35,0,8.48-1.6,16.22-4.8,23.17Z"/>
  <path class="cls-11" d="m466.45,166.37c-20.61-7.9-39.34-15.79-56.22-23.69,6.93-4.04,16.06-9.63,27.34-16.76,13.5-8.66,22.46-14.35,26.81-17.06-4.18-7.76-10.22-14.21-18.13-19.38-7.2-4.69-15.26-7.9-24.14-9.61-2.4-.18-4.75-.27-7.06-.27-11.73,0-22.39,2.62-31.99,7.85-10.13,5.6-17.99,13.54-23.59,23.83-4.8,8.75-7.2,18.64-7.2,29.65,0,14.98,4.13,27.44,12.39,37.36,6.31,7.58,13.64,13.51,22.03,17.8,8.4,4.29,17.17,6.43,26.32,6.43,6.4,0,12.66-1.08,18.77-3.25,8.09-2.78,15.28-6.95,21.59-12.54,7.2-6.3,11.55-13.09,13.06-20.35Z"/>
  <path class="cls-2" d="m466.45,166.37c-20.61-7.9-39.34-15.79-56.22-23.69,6.93-4.04,16.06-9.63,27.34-16.76,13.5-8.66,22.46-14.35,26.81-17.06-4.18-7.76-10.22-14.21-18.13-19.38-7.2-4.69-15.26-7.9-24.14-9.61-2.4-.18-4.75-.27-7.06-.27-11.73,0-22.39,2.62-31.99,7.85-10.13,5.6-17.99,13.54-23.59,23.83-4.8,8.75-7.2,18.64-7.2,29.65,0,14.98,4.13,27.44,12.39,37.36,6.31,7.58,13.64,13.51,22.03,17.8,8.4,4.29,17.17,6.43,26.32,6.43,6.4,0,12.66-1.08,18.77-3.25,8.09-2.78,15.28-6.95,21.59-12.54,7.2-6.3,11.55-13.09,13.06-20.35Z"/>
  <path class="cls-11" d="m473.43,163.8c-4.35,12.63-12.33,22.97-23.92,31-11.59,8.03-23.97,12-37.12,11.91-11.91,0-23.01-3.23-33.32-9.68-10.31-6.45-18.35-15.18-24.12-26.19-4.53-8.66-6.8-18.73-6.8-30.19,0-10.74,2.04-20.13,6.13-28.16,5.78-11.55,13.93-20.64,24.46-27.28,10.53-6.63,22.01-9.95,34.45-9.95,3.56,0,7.11.27,10.66.81,9.6,1.53,18.57,5.37,26.92,11.51,8.71,6.41,15.15,14.12,19.33,23.15-11.28,6.95-28.21,17.33-50.78,31.14,19.55,8.75,37.58,16.06,54.11,21.93Z"/>
  <path class="cls-2" d="m473.43,163.8c-4.35,12.63-12.33,22.97-23.92,31-11.59,8.03-23.97,12-37.12,11.91-11.91,0-23.01-3.23-33.32-9.68-10.31-6.45-18.35-15.18-24.12-26.19-4.53-8.66-6.8-18.73-6.8-30.19,0-10.74,2.04-20.13,6.13-28.16,5.78-11.55,13.93-20.64,24.46-27.28,10.53-6.63,22.01-9.95,34.45-9.95,3.56,0,7.11.27,10.66.81,9.6,1.53,18.57,5.37,26.92,11.51,8.71,6.41,15.15,14.12,19.33,23.15-11.28,6.95-28.21,17.33-50.78,31.14,19.55,8.75,37.58,16.06,54.11,21.93Z"/>
  <path class="cls-11" d="m332.1,159.11c1.69-5.62,2.53-11.44,2.53-17.51,0-13.38-3.69-25.45-11.06-36.21-12.53-18-31.23-26.74-56.11-26.19-11.19,1.35-21.5,5.66-30.92,12.88-9.6,7.51-16.44,16.65-20.52,27.41-2.58,6.88-3.86,14.15-3.86,21.84,0,16.65,5.24,30.71,15.73,42.19,12.35,13.38,27.36,20.08,45.05,20.08,4.44,0,8.93-.45,13.46-1.35,10.22-2.17,19.59-7.31,28.12-15.41,8.53-8.08,14.39-17.33,17.59-27.73Z"/>
  <path class="cls-2" d="m332.1,159.11c1.69-5.62,2.53-11.44,2.53-17.51,0-13.38-3.69-25.45-11.06-36.21-12.53-18-31.23-26.74-56.11-26.19-11.19,1.35-21.5,5.66-30.92,12.88-9.6,7.51-16.44,16.65-20.52,27.41-2.58,6.88-3.86,14.15-3.86,21.84,0,16.65,5.24,30.71,15.73,42.19,12.35,13.38,27.36,20.08,45.05,20.08,4.44,0,8.93-.45,13.46-1.35,10.22-2.17,19.59-7.31,28.12-15.41,8.53-8.08,14.39-17.33,17.59-27.73Z"/>
  <path class="cls-11" d="m328.61,165.25c-3.47,10.31-9.95,19.38-19.46,27.23-9.51,7.87-19.55,12.61-30.12,14.24-3.73.54-7.42.81-11.06.81-12,0-23.06-2.98-33.19-8.93-10.13-5.98-18.26-14.33-24.39-25.09-5.33-9.3-8-20.22-8-32.78,0-11.3,2.27-21.14,6.8-29.53,6.04-11.21,14.28-20.06,24.72-26.58,10.44-6.5,21.79-9.75,34.05-9.75,10.93,0,21.14,2.53,30.65,7.58,9.51,5.08,17.28,12.16,23.32,21.28,7.64,11.39,11.46,24.16,11.46,38.35,0,8.48-1.6,16.22-4.8,23.17Z"/>
  <path class="cls-2" d="m328.61,165.25c-3.47,10.31-9.95,19.38-19.46,27.23-9.51,7.87-19.55,12.61-30.12,14.24-3.73.54-7.42.81-11.06.81-12,0-23.06-2.98-33.19-8.93-10.13-5.98-18.26-14.33-24.39-25.09-5.33-9.3-8-20.22-8-32.78,0-11.3,2.27-21.14,6.8-29.53,6.04-11.21,14.28-20.06,24.72-26.58,10.44-6.5,21.79-9.75,34.05-9.75,10.93,0,21.14,2.53,30.65,7.58,9.51,5.08,17.28,12.16,23.32,21.28,7.64,11.39,11.46,24.16,11.46,38.35,0,8.48-1.6,16.22-4.8,23.17Z"/>
  <path class="cls-11" d="m187.34,167.67c-31.58-12.1-60.26-24.2-86.13-36.29,10.62-6.19,24.6-14.76,41.89-25.68,20.69-13.27,34.4-21.98,41.07-26.13-6.4-11.89-15.65-21.78-27.77-29.69-11.03-7.19-23.38-12.1-36.99-14.73-3.68-.28-7.28-.41-10.82-.41-17.97,0-34.3,4.01-49,12.03-15.52,8.57-27.56,20.74-36.14,36.5-7.35,13.41-11.03,28.55-11.03,45.42,0,22.95,6.33,42.03,18.99,57.24,9.66,11.61,20.89,20.7,33.76,27.27,12.86,6.57,26.3,9.85,40.32,9.85,9.8,0,19.4-1.66,28.75-4.98,12.39-4.25,23.41-10.65,33.08-19.22,11.03-9.64,17.69-20.05,20.01-31.18Z"/>
  <path class="cls-2" d="m187.34,167.67c-31.58-12.1-60.26-24.2-86.13-36.29,10.62-6.19,24.6-14.76,41.89-25.68,20.69-13.27,34.4-21.98,41.07-26.13-6.4-11.89-15.65-21.78-27.77-29.69-11.03-7.19-23.38-12.1-36.99-14.73-3.68-.28-7.28-.41-10.82-.41-17.97,0-34.3,4.01-49,12.03-15.52,8.57-27.56,20.74-36.14,36.5-7.35,13.41-11.03,28.55-11.03,45.42,0,22.95,6.33,42.03,18.99,57.24,9.66,11.61,20.89,20.7,33.76,27.27,12.86,6.57,26.3,9.85,40.32,9.85,9.8,0,19.4-1.66,28.75-4.98,12.39-4.25,23.41-10.65,33.08-19.22,11.03-9.64,17.69-20.05,20.01-31.18Z"/>
  <path class="cls-11" d="m198.02,163.73c-6.67,19.36-18.89,35.18-36.65,47.49-17.76,12.3-36.72,18.39-56.86,18.25-18.24,0-35.25-4.94-51.04-14.83-15.79-9.88-28.11-23.26-36.96-40.13-6.94-13.27-10.41-28.69-10.41-46.25,0-16.45,3.13-30.83,9.39-43.13,8.85-17.7,21.34-31.63,37.47-41.79,16.13-10.16,33.72-15.24,52.78-15.24,5.45,0,10.89.41,16.33,1.24,14.7,2.35,28.45,8.23,41.24,17.63,13.34,9.82,23.21,21.64,29.61,35.46-17.29,10.65-43.22,26.54-77.79,47.7,29.94,13.41,57.58,24.61,82.89,33.6Z"/>
  <path class="cls-2" d="m198.02,163.73c-6.67,19.36-18.89,35.18-36.65,47.49-17.76,12.3-36.72,18.39-56.86,18.25-18.24,0-35.25-4.94-51.04-14.83-15.79-9.88-28.11-23.26-36.96-40.13-6.94-13.27-10.41-28.69-10.41-46.25,0-16.45,3.13-30.83,9.39-43.13,8.85-17.7,21.34-31.63,37.47-41.79,16.13-10.16,33.72-15.24,52.78-15.24,5.45,0,10.89.41,16.33,1.24,14.7,2.35,28.45,8.23,41.24,17.63,13.34,9.82,23.21,21.64,29.61,35.46-17.29,10.65-43.22,26.54-77.79,47.7,29.94,13.41,57.58,24.61,82.89,33.6Z"/>
  <path class="cls-11" d="m168.21,174.51c0,3.6-2.25,7.53-6.74,11.82-3.54,3.32-7.62,6.15-12.25,8.5l-1.84-1.45c2.86-2.35,5.72-4.77,8.57-7.26,3.54-3.04,5.92-6.08,7.15-9.12-6.4-3.18-15.18-6.91-26.34-11.2-13.47-5.25-22.39-8.85-26.75-10.79v-3.32l58.19,22.81Z"/>
  <path class="cls-2" d="m168.21,174.51c0,3.6-2.25,7.53-6.74,11.82-3.54,3.32-7.62,6.15-12.25,8.5l-1.84-1.45c2.86-2.35,5.72-4.77,8.57-7.26,3.54-3.04,5.92-6.08,7.15-9.12-6.4-3.18-15.18-6.91-26.34-11.2-13.47-5.25-22.39-8.85-26.75-10.79v-3.32l58.19,22.81Z"/>
  <path class="cls-11" d="m323.58,160.55c-2.4,10.2-8.57,18.68-18.53,25.45-8.71,5.87-18.61,9.43-29.72,10.7v-2.44c10.66-1.53,20.08-5.01,28.25-10.42,9.51-6.23,15.59-14.12,18.26-23.69.09.27.67.4,1.73.4Z"/>
  <path class="cls-2" d="m323.58,160.55c-2.4,10.2-8.57,18.68-18.53,25.45-8.71,5.87-18.61,9.43-29.72,10.7v-2.44c10.66-1.53,20.08-5.01,28.25-10.42,9.51-6.23,15.59-14.12,18.26-23.69.09.27.67.4,1.73.4Z"/>
  <path class="cls-11" d="m278.26,141.87c-.27,3.25-1.64,5.46-4.13,6.63-.36.09-.76.14-1.2.14-1.69,0-3.51-1.44-5.46-4.33-.09-.45-.13-.9-.13-1.35,0-2.62,1.55-4.51,4.66-5.69,1.42,0,2.75.45,4,1.35,1.24.9,2,1.99,2.27,3.25Z"/>
  <path class="cls-2" d="m278.26,141.87c-.27,3.25-1.64,5.46-4.13,6.63-.36.09-.76.14-1.2.14-1.69,0-3.51-1.44-5.46-4.33-.09-.45-.13-.9-.13-1.35,0-2.62,1.55-4.51,4.66-5.69,1.42,0,2.75.45,4,1.35,1.24.9,2,1.99,2.27,3.25Z"/>
  <path class="cls-11" d="m453.97,170.84c0,2.35-1.47,4.92-4.4,7.72-2.31,2.17-4.98,4.02-8,5.55l-1.2-.95c1.87-1.53,3.73-3.11,5.6-4.74,2.31-1.99,3.87-3.97,4.66-5.96-4.18-2.08-9.91-4.51-17.19-7.31-8.8-3.43-14.62-5.78-17.46-7.04v-2.17l37.98,14.89Z"/>
  <path class="cls-2" d="m453.97,170.84c0,2.35-1.47,4.92-4.4,7.72-2.31,2.17-4.98,4.02-8,5.55l-1.2-.95c1.87-1.53,3.73-3.11,5.6-4.74,2.31-1.99,3.87-3.97,4.66-5.96-4.18-2.08-9.91-4.51-17.19-7.31-8.8-3.43-14.62-5.78-17.46-7.04v-2.17l37.98,14.89Z"/>
  <path class="cls-11" d="m794.52,167.04c0-12.35-4.93-24.7-14.81-37.06-3.72-4.8-13.59-14.97-29.62-30.52,4.29-5.81,10.59-12.93,18.89-21.36,12.73-12.79,19.6-19.69,20.6-20.71-2.29-4.07-4.58-8.14-6.87-12.21-2.86-4.65-6.08-8.36-9.66-11.12-10.3-7.99-22.39-11.99-36.27-11.99-11.3,0-21.39,2.83-30.26,8.5-8.15,5.23-14.66,12.54-19.53,21.91-4.87,9.37-7.3,19.07-7.3,29.1,0,11.48,4.93,23.18,14.81,35.09,9.3,9.59,18.6,19.18,27.9,28.77l-36.06,37.49c-1,1.74-1.5,3.49-1.5,5.23,0,3.2,1.36,6.83,4.08,10.9,2.58,3.34,5.15,6.69,7.73,10.03,11.73,10.75,25.47,16.13,41.21,16.13,8.87,0,17.24-1.89,25.11-5.67,9.44-4.21,17.1-11.48,22.96-21.8,5.72-9.74,8.58-19.98,8.58-30.73Z"/>
  <path class="cls-2" d="m794.52,167.04c0-12.35-4.93-24.7-14.81-37.06-3.72-4.8-13.59-14.97-29.62-30.52,4.29-5.81,10.59-12.93,18.89-21.36,12.73-12.79,19.6-19.69,20.6-20.71-2.29-4.07-4.58-8.14-6.87-12.21-2.86-4.65-6.08-8.36-9.66-11.12-10.3-7.99-22.39-11.99-36.27-11.99-11.3,0-21.39,2.83-30.26,8.5-8.15,5.23-14.66,12.54-19.53,21.91-4.87,9.37-7.3,19.07-7.3,29.1,0,11.48,4.93,23.18,14.81,35.09,9.3,9.59,18.6,19.18,27.9,28.77l-36.06,37.49c-1,1.74-1.5,3.49-1.5,5.23,0,3.2,1.36,6.83,4.08,10.9,2.58,3.34,5.15,6.69,7.73,10.03,11.73,10.75,25.47,16.13,41.21,16.13,8.87,0,17.24-1.89,25.11-5.67,9.44-4.21,17.1-11.48,22.96-21.8,5.72-9.74,8.58-19.98,8.58-30.73Z"/>
  <path class="cls-11" d="m798.81,183.82c-3,10.46-8.37,19.98-16.09,28.56-8.3,9.15-17.38,14.97-27.26,17.44-6.01,1.45-12.02,2.18-18.03,2.18-14.31,0-27.47-4.36-39.52-13.08-12.88-9.45-20.1-21.15-21.68-35.13l36.95-37.46c-14.31-14.53-23.75-25.29-28.33-32.26-8.58-12.93-12.3-26.09-11.16-39.45,1-12.79,5.9-24.7,14.7-35.75,8.8-11.04,19.21-18.24,31.23-21.58,5.87-1.6,11.73-2.4,17.6-2.4,19.89,0,36.41,8.36,49.57,25.07,5.87,7.27,9.23,13.73,10.09,19.4l-38.41,39.46c13.73,12.79,23.47,23.25,29.19,31.39,8.87,12.64,13.31,25.21,13.31,37.71,0,5.23-.72,10.54-2.15,15.91Z"/>
  <path class="cls-2" d="m798.81,183.82c-3,10.46-8.37,19.98-16.09,28.56-8.3,9.15-17.38,14.97-27.26,17.44-6.01,1.45-12.02,2.18-18.03,2.18-14.31,0-27.47-4.36-39.52-13.08-12.88-9.45-20.1-21.15-21.68-35.13l36.95-37.46c-14.31-14.53-23.75-25.29-28.33-32.26-8.58-12.93-12.3-26.09-11.16-39.45,1-12.79,5.9-24.7,14.7-35.75,8.8-11.04,19.21-18.24,31.23-21.58,5.87-1.6,11.73-2.4,17.6-2.4,19.89,0,36.41,8.36,49.57,25.07,5.87,7.27,9.23,13.73,10.09,19.4l-38.41,39.46c13.73,12.79,23.47,23.25,29.19,31.39,8.87,12.64,13.31,25.21,13.31,37.71,0,5.23-.72,10.54-2.15,15.91Z"/>
  <path class="cls-11" d="m779.71,171.62c.43-1.16.65-2.4.65-3.71,0-1.89-.68-4.47-2.04-7.74-1.36-3.27-2.04-5.56-2.04-6.87,0-1.45.43-2.76,1.29-3.92,3.86,5.09,5.8,10.97,5.8,17.66,0,9.74-4.08,20.64-12.23,32.7-3.15,3.34-7.22,6.25-12.23,8.72-.57.29-5.08,2.03-13.52,5.23-.57-.14-.93-.44-1.07-.87v-1.31c.29-.58.43-1.02.43-1.31,8.94-1.6,16.63-6.18,23.11-13.73,6.19-7.12,10.16-15.4,11.87-24.85Z"/>
  <path class="cls-2" d="m779.71,171.62c.43-1.16.65-2.4.65-3.71,0-1.89-.68-4.47-2.04-7.74-1.36-3.27-2.04-5.56-2.04-6.87,0-1.45.43-2.76,1.29-3.92,3.86,5.09,5.8,10.97,5.8,17.66,0,9.74-4.08,20.64-12.23,32.7-3.15,3.34-7.22,6.25-12.23,8.72-.57.29-5.08,2.03-13.52,5.23-.57-.14-.93-.44-1.07-.87v-1.31c.29-.58.43-1.02.43-1.31,8.94-1.6,16.63-6.18,23.11-13.73,6.19-7.12,10.16-15.4,11.87-24.85Z"/>
  <path class="cls-11" d="m775.64,55.87c-2.15,2.61-4.29,5.23-6.44,7.85-3,3.2-5.72,4.58-8.15,4.14,0-1.74,1.72-4.03,5.15-6.94,3.43-2.87,5.15-5.05,5.15-6.47,0-1.74-1.21-3.42-3.65-5.01-13.16-8.94-24.46-13.4-33.91-13.4-4.01,0-7.8.65-11.37,1.96,1.43-3.2,5.15-5.01,11.16-5.45,21.6,1.02,35.62,8.79,42.06,23.33Z"/>
  <path class="cls-2" d="m775.64,55.87c-2.15,2.61-4.29,5.23-6.44,7.85-3,3.2-5.72,4.58-8.15,4.14,0-1.74,1.72-4.03,5.15-6.94,3.43-2.87,5.15-5.05,5.15-6.47,0-1.74-1.21-3.42-3.65-5.01-13.16-8.94-24.46-13.4-33.91-13.4-4.01,0-7.8.65-11.37,1.96,1.43-3.2,5.15-5.01,11.16-5.45,21.6,1.02,35.62,8.79,42.06,23.33Z"/>
  <path class="cls-11" d="m890.07,156.49c.27,2.17-.09,4.11-1.07,5.82-1.16,1.99-2.8,2.98-4.93,2.98-2.67,0-4.71-1.44-6.13-4.33-.27-1.71-.13-3.38.4-5.01.71-1.99,1.91-3.2,3.6-3.65.53-.09,1.07-.14,1.6-.14,2.75,0,4.93,1.44,6.53,4.33Z"/>
  <path class="cls-2" d="m890.07,156.49c.27,2.17-.09,4.11-1.07,5.82-1.16,1.99-2.8,2.98-4.93,2.98-2.67,0-4.71-1.44-6.13-4.33-.27-1.71-.13-3.38.4-5.01.71-1.99,1.91-3.2,3.6-3.65.53-.09,1.07-.14,1.6-.14,2.75,0,4.93,1.44,6.53,4.33Z"/>
  <path class="cls-11" d="m937.78,197.65l-27.32.54v-1.76l22.79-.68c-.98-3.25-3.15-7.99-6.53-14.21-3.55-6.59-5.86-11.51-6.93-14.75l1.6-.95,16.39,31.81Z"/>
  <path class="cls-2" d="m937.78,197.65l-27.32.54v-1.76l22.79-.68c-.98-3.25-3.15-7.99-6.53-14.21-3.55-6.59-5.86-11.51-6.93-14.75l1.6-.95,16.39,31.81Z"/>
  <path class="cls-11" d="m1029.38,116.56c0,3.88-1.78,6.41-5.33,7.58-4.62-.36-7.24-1.89-7.86-4.6-.09-.63-.13-1.22-.13-1.76,0-2.8,1.33-4.96,4-6.5.62-.27,1.33-.41,2.13-.41,1.69,0,3.27.52,4.73,1.56,1.47,1.04,2.29,2.41,2.46,4.13Z"/>
  <path class="cls-2" d="m1029.38,116.56c0,3.88-1.78,6.41-5.33,7.58-4.62-.36-7.24-1.89-7.86-4.6-.09-.63-.13-1.22-.13-1.76,0-2.8,1.33-4.96,4-6.5.62-.27,1.33-.41,2.13-.41,1.69,0,3.27.52,4.73,1.56,1.47,1.04,2.29,2.41,2.46,4.13Z"/>
  <path class="cls-11" d="m1128.53,86.78h-16.26c-.44,7.76-.67,19.58-.67,35.47s-.22,27.84-.67,35.6h-1.2l-.53-73.51c4.44-.18,10.89.04,19.33.68v1.76Z"/>
  <path class="cls-2" d="m1128.53,86.78h-16.26c-.44,7.76-.67,19.58-.67,35.47s-.22,27.84-.67,35.6h-1.2l-.53-73.51c4.44-.18,10.89.04,19.33.68v1.76Z"/>
  <path class="cls-11" d="m1238.93,86.51l-52.38.41-.4,44.13h-1.87v-46.97c12.26-.18,30.48.05,54.64.68v1.76Z"/>
  <path class="cls-2" d="m1238.93,86.51l-52.38.41-.4,44.13h-1.87v-46.97c12.26-.18,30.48.05,54.64.68v1.76Z"/>
  <path class="cls-11" d="m1418.31,194.53h-34.79v-1.76c4.09-.45,9.37-.68,15.86-.68h16.13l1.07-39.53h1.2l.53,41.96Z"/>
  <path class="cls-2" d="m1418.31,194.53h-34.79v-1.76c4.09-.45,9.37-.68,15.86-.68h16.13l1.07-39.53h1.2l.53,41.96Z"/>
  <path class="cls-11" d="m1511.19,171.11c.27-.72.4-1.49.4-2.3,0-1.17-.42-2.78-1.27-4.81-.84-2.03-1.27-3.45-1.27-4.26,0-.9.27-1.71.8-2.44,2.4,3.16,3.6,6.81,3.6,10.97,0,6.05-2.53,12.82-7.6,20.31-1.95,2.08-4.49,3.88-7.6,5.42-.36.18-3.15,1.26-8.4,3.25-.36-.09-.58-.27-.67-.54v-.81c.18-.36.27-.63.27-.81,5.55-.99,10.33-3.84,14.35-8.53,3.84-4.42,6.31-9.57,7.37-15.43Z"/>
  <path class="cls-2" d="m1511.19,171.11c.27-.72.4-1.49.4-2.3,0-1.17-.42-2.78-1.27-4.81-.84-2.03-1.27-3.45-1.27-4.26,0-.9.27-1.71.8-2.44,2.4,3.16,3.6,6.81,3.6,10.97,0,6.05-2.53,12.82-7.6,20.31-1.95,2.08-4.49,3.88-7.6,5.42-.36.18-3.15,1.26-8.4,3.25-.36-.09-.58-.27-.67-.54v-.81c.18-.36.27-.63.27-.81,5.55-.99,10.33-3.84,14.35-8.53,3.84-4.42,6.31-9.57,7.37-15.43Z"/>
  <path class="cls-11" d="m594.53,160.55c-2.4,10.2-8.57,18.68-18.53,25.45-8.71,5.87-18.61,9.43-29.72,10.7v-2.44c10.66-1.53,20.08-5.01,28.25-10.42,9.51-6.23,15.59-14.12,18.26-23.69.09.27.67.4,1.73.4Z"/>
  <path class="cls-2" d="m594.53,160.55c-2.4,10.2-8.57,18.68-18.53,25.45-8.71,5.87-18.61,9.43-29.72,10.7v-2.44c10.66-1.53,20.08-5.01,28.25-10.42,9.51-6.23,15.59-14.12,18.26-23.69.09.27.67.4,1.73.4Z"/>
  <path class="cls-11" d="m549.21,141.87c-.27,3.25-1.64,5.46-4.13,6.63-.35.09-.76.14-1.2.14-1.69,0-3.51-1.44-5.46-4.33-.09-.45-.13-.9-.13-1.35,0-2.62,1.55-4.51,4.66-5.69,1.42,0,2.75.45,4,1.35,1.24.9,2,1.99,2.27,3.25Z"/>
  <path class="cls-2" d="m549.21,141.87c-.27,3.25-1.64,5.46-4.13,6.63-.35.09-.76.14-1.2.14-1.69,0-3.51-1.44-5.46-4.33-.09-.45-.13-.9-.13-1.35,0-2.62,1.55-4.51,4.66-5.69,1.42,0,2.75.45,4,1.35,1.24.9,2,1.99,2.27,3.25Z"/>
  <path class="cls-8" d="m1422.53,191.2v-126.3h-40.78l-.53,76.35c-8.53-8.78-19.06-20.31-31.59-34.52-10.48-11.87-20.92-23.69-31.32-35.47v119.94h104.22Z"/>
  <path class="cls-4" d="m1422.53,191.2v-126.3h-40.78l-.53,76.35c-8.53-8.78-19.06-20.31-31.59-34.52-10.48-11.87-20.92-23.69-31.32-35.47v119.94h104.22Z"/>
  <polygon class="cls-8" points="1425.86 195.13 1314.98 195.13 1314.98 60.57 1377.22 131.23 1378.42 60.3 1425.86 60.3 1425.86 195.13"/>
  <polygon class="cls-3" points="1425.86 195.13 1314.98 195.13 1314.98 60.57 1377.22 131.23 1378.42 60.3 1425.86 60.3 1425.86 195.13"/>
  <path class="cls-8" d="m1294.07,190.66v-17.6h-71.17c-1.33-4.87-1.51-12.59-.53-23.15h25.32v-9.07h-25.72c-.62-1.99-1.02-4.33-1.2-7.04-.18-1.71-.22-4.2-.13-7.45.09-3.61.13-6.09.13-7.45l1.2-1.22h72.1v-53.34h-121.41v126.3h121.41Z"/>
  <path class="cls-4" d="m1294.07,190.66v-17.6h-71.17c-1.33-4.87-1.51-12.59-.53-23.15h25.32v-9.07h-25.72c-.62-1.99-1.02-4.33-1.2-7.04-.18-1.71-.22-4.2-.13-7.45.09-3.61.13-6.09.13-7.45l1.2-1.22h72.1v-53.34h-121.41v126.3h121.41Z"/>
  <path class="cls-8" d="m1298.2,121.62h-72.5c-.8,2.19-1.2,4.74-1.2,7.65s.4,5.37,1.2,7.38h25.72v16.92l-25.72,1.22v13.27l72.1.54v25.99h-128.88V59.76h128.88l.4,61.86Z"/>
  <path class="cls-3" d="m1298.2,121.62h-72.5c-.8,2.19-1.2,4.74-1.2,7.65s.4,5.37,1.2,7.38h25.72v16.92l-25.72,1.22v13.27l72.1.54v25.99h-128.88V59.76h128.88l.4,61.86Z"/>
  <rect class="cls-8" x="1097.7" y="63.95" width="46.78" height="126.98"/>
  <rect class="cls-4" x="1097.7" y="63.95" width="46.78" height="126.98"/>
  <polygon class="cls-8" points="1148.61 194.86 1093.97 194.86 1094.37 60.03 1148.61 60.03 1148.61 194.86"/>
  <polygon class="cls-3" points="1148.61 194.86 1093.97 194.86 1094.37 60.03 1148.61 60.03 1148.61 194.86"/>
  <path class="cls-8" d="m1065.46,103.89c.18,7.31-4.26,14.49-13.33,21.52-15.46,7.13-27.94,10.69-37.45,10.69h-5.46l-.53,46.7-1.2,1.22c-8.97.18-22.3.04-39.98-.41v-2.03l38.38-.41.53-47.52h6c15.02,0,28.88-4.11,41.58-12.32,2.31-2.08,4.35-4.83,6.13-8.26,1.42-3.07,2.8-6.14,4.13-9.21h1.2Z"/>
  <path class="cls-4" d="m1065.46,103.89c.18,7.31-4.26,14.49-13.33,21.52-15.46,7.13-27.94,10.69-37.45,10.69h-5.46l-.53,46.7-1.2,1.22c-8.97.18-22.3.04-39.98-.41v-2.03l38.38-.41.53-47.52h6c15.02,0,28.88-4.11,41.58-12.32,2.31-2.08,4.35-4.83,6.13-8.26,1.42-3.07,2.8-6.14,4.13-9.21h1.2Z"/>
  <path class="cls-8" d="m1071.86,96.47c-4.53-12.45-12.33-21.16-23.35-26.15-8.55-3.79-20.24-5.69-35.1-5.69-4.35,0-10.95.2-19.75.61-8.82.4-15.35.61-19.61.61-6.4,0-12.02-.41-16.82-1.22v125.35h60.11l.4-47.02c17.37.72,32.39-4.38,45.02-15.32,6.6-7.58,9.88-15.68,9.88-24.25,0-2.35-.27-4.65-.8-6.93Z"/>
  <path class="cls-4" d="m1071.86,96.47c-4.53-12.45-12.33-21.16-23.35-26.15-8.55-3.79-20.24-5.69-35.1-5.69-4.35,0-10.95.2-19.75.61-8.82.4-15.35.61-19.61.61-6.4,0-12.02-.41-16.82-1.22v125.35h60.11l.4-47.02c17.37.72,32.39-4.38,45.02-15.32,6.6-7.58,9.88-15.68,9.88-24.25,0-2.35-.27-4.65-.8-6.93Z"/>
  <path class="cls-8" d="m1075.05,92.79c.89,3.52,1.33,7.08,1.33,10.7,0,10.92-3.64,19.94-10.93,27.07-11.11,10.83-25.63,16.24-43.58,16.24l-.53,47.11-67.44.54V60.3c5.07.63,10.88.95,17.46.95,4.62,0,11.66-.23,21.12-.68,9.46-.45,16.5-.68,21.12-.68,15.19,0,27.28,1.99,36.25,5.96,11.46,5.05,19.86,14.03,25.19,26.94Z"/>
  <path class="cls-3" d="m1075.05,92.79c.89,3.52,1.33,7.08,1.33,10.7,0,10.92-3.64,19.94-10.93,27.07-11.11,10.83-25.63,16.24-43.58,16.24l-.53,47.11-67.44.54V60.3c5.07.63,10.88.95,17.46.95,4.62,0,11.66-.23,21.12-.68,9.46-.45,16.5-.68,21.12-.68,15.19,0,27.28,1.99,36.25,5.96,11.46,5.05,19.86,14.03,25.19,26.94Z"/>
  <polygon class="cls-8" points="943.67 190.26 881.37 69.68 812.58 190.53 943.67 190.26"/>
  <polygon class="cls-4" points="943.67 190.26 881.37 69.68 812.58 190.53 943.67 190.26"/>
  <path class="cls-8" d="m945.62,194.18l-144.87.41,75.7-133.61c9.6,17.42,21.24,39.48,34.92,66.19,22.83,44.67,34.25,67.01,34.25,67.01Z"/>
  <path class="cls-3" d="m945.62,194.18l-144.87.41,75.7-133.61c9.6,17.42,21.24,39.48,34.92,66.19,22.83,44.67,34.25,67.01,34.25,67.01Z"/>
  <path class="cls-11" d="m597.95,145.22c1.69-5.62,2.53-11.44,2.53-17.51,0-13.38-3.69-25.45-11.06-36.21-12.53-18-31.23-26.74-56.11-26.19-11.19,1.35-21.5,5.66-30.92,12.88-9.6,7.51-16.44,16.65-20.52,27.41-2.58,6.88-3.86,14.15-3.86,21.84,0,16.65,5.24,30.71,15.73,42.19,12.35,13.38,27.36,20.08,45.05,20.08,4.44,0,8.93-.45,13.46-1.35,10.22-2.17,19.59-7.31,28.12-15.41,8.53-8.08,14.39-17.33,17.59-27.73Z"/>
  <path class="cls-4" d="m597.95,145.22c1.69-5.62,2.53-11.44,2.53-17.51,0-13.38-3.69-25.45-11.06-36.21-12.53-18-31.23-26.74-56.11-26.19-11.19,1.35-21.5,5.66-30.92,12.88-9.6,7.51-16.44,16.65-20.52,27.41-2.58,6.88-3.86,14.15-3.86,21.84,0,16.65,5.24,30.71,15.73,42.19,12.35,13.38,27.36,20.08,45.05,20.08,4.44,0,8.93-.45,13.46-1.35,10.22-2.17,19.59-7.31,28.12-15.41,8.53-8.08,14.39-17.33,17.59-27.73Z"/>
  <path class="cls-8" d="m600.08,151.36c-3.47,10.31-9.95,19.38-19.46,27.23-9.51,7.87-19.55,12.61-30.12,14.24-3.73.54-7.42.81-11.06.81-12,0-23.06-2.98-33.19-8.93-10.13-5.98-18.26-14.33-24.39-25.09-5.33-9.3-8-20.22-8-32.78,0-11.3,2.27-21.14,6.8-29.53,6.04-11.21,14.28-20.06,24.72-26.58,10.44-6.5,21.79-9.75,34.05-9.75,10.93,0,21.15,2.53,30.65,7.58,9.51,5.08,17.28,12.16,23.32,21.28,7.64,11.39,11.46,24.16,11.46,38.35,0,8.48-1.6,16.22-4.8,23.17Z"/>
  <path class="cls-3" d="m600.08,151.36c-3.47,10.31-9.95,19.38-19.46,27.23-9.51,7.87-19.55,12.61-30.12,14.24-3.73.54-7.42.81-11.06.81-12,0-23.06-2.98-33.19-8.93-10.13-5.98-18.26-14.33-24.39-25.09-5.33-9.3-8-20.22-8-32.78,0-11.3,2.27-21.14,6.8-29.53,6.04-11.21,14.28-20.06,24.72-26.58,10.44-6.5,21.79-9.75,34.05-9.75,10.93,0,21.15,2.53,30.65,7.58,9.51,5.08,17.28,12.16,23.32,21.28,7.64,11.39,11.46,24.16,11.46,38.35,0,8.48-1.6,16.22-4.8,23.17Z"/>
  <path class="cls-11" d="m461.35,152.49c-20.61-7.9-39.34-15.79-56.22-23.69,6.93-4.04,16.06-9.63,27.34-16.76,13.5-8.66,22.46-14.35,26.81-17.06-4.18-7.76-10.22-14.21-18.13-19.38-7.2-4.69-15.26-7.9-24.14-9.61-2.4-.18-4.75-.27-7.06-.27-11.73,0-22.39,2.62-31.99,7.85-10.13,5.6-17.99,13.54-23.59,23.83-4.8,8.75-7.2,18.64-7.2,29.65,0,14.98,4.13,27.44,12.39,37.36,6.31,7.58,13.64,13.51,22.03,17.8,8.4,4.29,17.17,6.43,26.32,6.43,6.4,0,12.66-1.08,18.77-3.25,8.09-2.78,15.28-6.95,21.59-12.54,7.2-6.3,11.55-13.09,13.06-20.35Z"/>
  <path class="cls-4" d="m461.35,152.49c-20.61-7.9-39.34-15.79-56.22-23.69,6.93-4.04,16.06-9.63,27.34-16.76,13.5-8.66,22.46-14.35,26.81-17.06-4.18-7.76-10.22-14.21-18.13-19.38-7.2-4.69-15.26-7.9-24.14-9.61-2.4-.18-4.75-.27-7.06-.27-11.73,0-22.39,2.62-31.99,7.85-10.13,5.6-17.99,13.54-23.59,23.83-4.8,8.75-7.2,18.64-7.2,29.65,0,14.98,4.13,27.44,12.39,37.36,6.31,7.58,13.64,13.51,22.03,17.8,8.4,4.29,17.17,6.43,26.32,6.43,6.4,0,12.66-1.08,18.77-3.25,8.09-2.78,15.28-6.95,21.59-12.54,7.2-6.3,11.55-13.09,13.06-20.35Z"/>
  <path class="cls-8" d="m468.32,149.91c-4.35,12.63-12.33,22.97-23.92,31-11.59,8.03-23.97,12-37.12,11.91-11.91,0-23.01-3.23-33.32-9.68-10.31-6.45-18.35-15.18-24.12-26.19-4.53-8.66-6.8-18.73-6.8-30.19,0-10.74,2.04-20.13,6.13-28.16,5.78-11.55,13.93-20.64,24.46-27.28,10.53-6.63,22.01-9.95,34.45-9.95,3.56,0,7.11.27,10.66.81,9.6,1.53,18.57,5.37,26.92,11.51,8.71,6.41,15.15,14.12,19.33,23.15-11.28,6.95-28.21,17.33-50.78,31.14,19.55,8.75,37.58,16.06,54.11,21.93Z"/>
  <path class="cls-3" d="m468.32,149.91c-4.35,12.63-12.33,22.97-23.92,31-11.59,8.03-23.97,12-37.12,11.91-11.91,0-23.01-3.23-33.32-9.68-10.31-6.45-18.35-15.18-24.12-26.19-4.53-8.66-6.8-18.73-6.8-30.19,0-10.74,2.04-20.13,6.13-28.16,5.78-11.55,13.93-20.64,24.46-27.28,10.53-6.63,22.01-9.95,34.45-9.95,3.56,0,7.11.27,10.66.81,9.6,1.53,18.57,5.37,26.92,11.51,8.71,6.41,15.15,14.12,19.33,23.15-11.28,6.95-28.21,17.33-50.78,31.14,19.55,8.75,37.58,16.06,54.11,21.93Z"/>
  <path class="cls-11" d="m327,145.22c1.69-5.62,2.53-11.44,2.53-17.51,0-13.38-3.69-25.45-11.06-36.21-12.53-18-31.23-26.74-56.11-26.19-11.19,1.35-21.5,5.66-30.92,12.88-9.6,7.51-16.44,16.65-20.52,27.41-2.58,6.88-3.86,14.15-3.86,21.84,0,16.65,5.24,30.71,15.73,42.19,12.35,13.38,27.36,20.08,45.05,20.08,4.44,0,8.93-.45,13.46-1.35,10.22-2.17,19.59-7.31,28.12-15.41,8.53-8.08,14.39-17.33,17.59-27.73Z"/>
  <path class="cls-4" d="m327,145.22c1.69-5.62,2.53-11.44,2.53-17.51,0-13.38-3.69-25.45-11.06-36.21-12.53-18-31.23-26.74-56.11-26.19-11.19,1.35-21.5,5.66-30.92,12.88-9.6,7.51-16.44,16.65-20.52,27.41-2.58,6.88-3.86,14.15-3.86,21.84,0,16.65,5.24,30.71,15.73,42.19,12.35,13.38,27.36,20.08,45.05,20.08,4.44,0,8.93-.45,13.46-1.35,10.22-2.17,19.59-7.31,28.12-15.41,8.53-8.08,14.39-17.33,17.59-27.73Z"/>
  <path class="cls-8" d="m323.51,151.36c-3.47,10.31-9.95,19.38-19.46,27.23-9.51,7.87-19.55,12.61-30.12,14.24-3.73.54-7.42.81-11.06.81-12,0-23.06-2.98-33.19-8.93-10.13-5.98-18.26-14.33-24.39-25.09-5.33-9.3-8-20.22-8-32.78,0-11.3,2.27-21.14,6.8-29.53,6.04-11.21,14.28-20.06,24.72-26.58,10.44-6.5,21.79-9.75,34.05-9.75,10.93,0,21.14,2.53,30.65,7.58,9.51,5.08,17.28,12.16,23.32,21.28,7.64,11.39,11.46,24.16,11.46,38.35,0,8.48-1.6,16.22-4.8,23.17Z"/>
  <path class="cls-3" d="m323.51,151.36c-3.47,10.31-9.95,19.38-19.46,27.23-9.51,7.87-19.55,12.61-30.12,14.24-3.73.54-7.42.81-11.06.81-12,0-23.06-2.98-33.19-8.93-10.13-5.98-18.26-14.33-24.39-25.09-5.33-9.3-8-20.22-8-32.78,0-11.3,2.27-21.14,6.8-29.53,6.04-11.21,14.28-20.06,24.72-26.58,10.44-6.5,21.79-9.75,34.05-9.75,10.93,0,21.14,2.53,30.65,7.58,9.51,5.08,17.28,12.16,23.32,21.28,7.64,11.39,11.46,24.16,11.46,38.35,0,8.48-1.6,16.22-4.8,23.17Z"/>
  <path class="cls-11" d="m182.24,153.78c-31.58-12.1-60.26-24.2-86.13-36.29,10.62-6.19,24.6-14.76,41.89-25.68,20.69-13.27,34.4-21.98,41.07-26.13-6.4-11.89-15.65-21.78-27.77-29.69-11.03-7.19-23.38-12.1-36.99-14.73-3.68-.28-7.28-.41-10.82-.41-17.97,0-34.3,4.01-49,12.03-15.52,8.57-27.56,20.74-36.14,36.5-7.35,13.41-11.03,28.55-11.03,45.42,0,22.95,6.33,42.03,18.99,57.24,9.66,11.61,20.89,20.7,33.76,27.27,12.86,6.57,26.3,9.85,40.32,9.85,9.8,0,19.4-1.66,28.75-4.98,12.39-4.25,23.41-10.65,33.08-19.22,11.03-9.64,17.69-20.05,20.01-31.18Z"/>
  <path class="cls-4" d="m182.24,153.78c-31.58-12.1-60.26-24.2-86.13-36.29,10.62-6.19,24.6-14.76,41.89-25.68,20.69-13.27,34.4-21.98,41.07-26.13-6.4-11.89-15.65-21.78-27.77-29.69-11.03-7.19-23.38-12.1-36.99-14.73-3.68-.28-7.28-.41-10.82-.41-17.97,0-34.3,4.01-49,12.03-15.52,8.57-27.56,20.74-36.14,36.5-7.35,13.41-11.03,28.55-11.03,45.42,0,22.95,6.33,42.03,18.99,57.24,9.66,11.61,20.89,20.7,33.76,27.27,12.86,6.57,26.3,9.85,40.32,9.85,9.8,0,19.4-1.66,28.75-4.98,12.39-4.25,23.41-10.65,33.08-19.22,11.03-9.64,17.69-20.05,20.01-31.18Z"/>
  <path class="cls-8" d="m192.92,149.84c-6.67,19.36-18.89,35.18-36.65,47.49-17.76,12.3-36.72,18.39-56.86,18.25-18.24,0-35.25-4.94-51.04-14.83-15.79-9.89-28.11-23.26-36.96-40.13-6.94-13.27-10.41-28.69-10.41-46.25,0-16.45,3.13-30.83,9.39-43.14,8.85-17.7,21.34-31.63,37.47-41.79,16.13-10.16,33.72-15.24,52.78-15.24,5.45,0,10.89.41,16.33,1.24,14.7,2.35,28.45,8.23,41.24,17.63,13.34,9.82,23.21,21.64,29.61,35.46-17.29,10.65-43.22,26.54-77.79,47.7,29.94,13.41,57.58,24.61,82.89,33.6Z"/>
  <path class="cls-3" d="m192.92,149.84c-6.67,19.36-18.89,35.18-36.65,47.49-17.76,12.3-36.72,18.39-56.86,18.25-18.24,0-35.25-4.94-51.04-14.83-15.79-9.89-28.11-23.26-36.96-40.13-6.94-13.27-10.41-28.69-10.41-46.25,0-16.45,3.13-30.83,9.39-43.14,8.85-17.7,21.34-31.63,37.47-41.79,16.13-10.16,33.72-15.24,52.78-15.24,5.45,0,10.89.41,16.33,1.24,14.7,2.35,28.45,8.23,41.24,17.63,13.34,9.82,23.21,21.64,29.61,35.46-17.29,10.65-43.22,26.54-77.79,47.7,29.94,13.41,57.58,24.61,82.89,33.6Z"/>
  <path class="cls-11" d="m163.11,160.63c0,3.6-2.25,7.53-6.74,11.82-3.54,3.32-7.62,6.15-12.25,8.5l-1.84-1.45c2.86-2.35,5.72-4.77,8.57-7.26,3.54-3.04,5.92-6.08,7.15-9.12-6.4-3.18-15.18-6.91-26.34-11.2-13.47-5.25-22.39-8.85-26.75-10.79v-3.32l58.19,22.81Z"/>
  <path class="cls-4" d="m163.11,160.63c0,3.6-2.25,7.53-6.74,11.82-3.54,3.32-7.62,6.15-12.25,8.5l-1.84-1.45c2.86-2.35,5.72-4.77,8.57-7.26,3.54-3.04,5.92-6.08,7.15-9.12-6.4-3.18-15.18-6.91-26.34-11.2-13.47-5.25-22.39-8.85-26.75-10.79v-3.32l58.19,22.81Z"/>
  <path class="cls-11" d="m318.47,146.67c-2.4,10.2-8.57,18.68-18.53,25.45-8.71,5.87-18.61,9.43-29.72,10.7v-2.44c10.66-1.53,20.08-5.01,28.25-10.42,9.51-6.23,15.59-14.12,18.26-23.69.09.27.67.4,1.73.4Z"/>
  <path class="cls-4" d="m318.47,146.67c-2.4,10.2-8.57,18.68-18.53,25.45-8.71,5.87-18.61,9.43-29.72,10.7v-2.44c10.66-1.53,20.08-5.01,28.25-10.42,9.51-6.23,15.59-14.12,18.26-23.69.09.27.67.4,1.73.4Z"/>
  <path class="cls-10" d="m273.16,127.98c-.27,3.25-1.64,5.46-4.13,6.63-.35.09-.76.14-1.2.14-1.69,0-3.51-1.44-5.46-4.33-.09-.45-.13-.9-.13-1.35,0-2.62,1.55-4.51,4.66-5.69,1.42,0,2.75.45,4,1.35,1.24.9,2,1.99,2.27,3.25Z"/>
  <path class="cls-4" d="m273.16,127.98c-.27,3.25-1.64,5.46-4.13,6.63-.35.09-.76.14-1.2.14-1.69,0-3.51-1.44-5.46-4.33-.09-.45-.13-.9-.13-1.35,0-2.62,1.55-4.51,4.66-5.69,1.42,0,2.75.45,4,1.35,1.24.9,2,1.99,2.27,3.25Z"/>
  <path class="cls-11" d="m448.86,156.95c0,2.35-1.47,4.92-4.4,7.72-2.31,2.17-4.98,4.02-8,5.55l-1.2-.95c1.87-1.53,3.73-3.11,5.6-4.74,2.31-1.99,3.87-3.97,4.66-5.96-4.18-2.08-9.91-4.51-17.19-7.31-8.8-3.43-14.62-5.78-17.46-7.04v-2.17l37.98,14.89Z"/>
  <path class="cls-4" d="m448.86,156.95c0,2.35-1.47,4.92-4.4,7.72-2.31,2.17-4.98,4.02-8,5.55l-1.2-.95c1.87-1.53,3.73-3.11,5.6-4.74,2.31-1.99,3.87-3.97,4.66-5.96-4.18-2.08-9.91-4.51-17.19-7.31-8.8-3.43-14.62-5.78-17.46-7.04v-2.17l37.98,14.89Z"/>
  <path class="cls-8" d="m789.42,153.15c0-12.35-4.93-24.7-14.81-37.06-3.72-4.8-13.59-14.97-29.62-30.52,4.29-5.81,10.59-12.93,18.89-21.36,12.73-12.79,19.6-19.69,20.6-20.71-2.29-4.07-4.58-8.14-6.87-12.21-2.86-4.65-6.08-8.36-9.66-11.12-10.3-7.99-22.39-11.99-36.27-11.99-11.3,0-21.39,2.83-30.26,8.5-8.16,5.23-14.66,12.54-19.53,21.91-4.87,9.37-7.3,19.07-7.3,29.1,0,11.48,4.93,23.18,14.81,35.09,9.3,9.59,18.6,19.18,27.9,28.77l-36.06,37.49c-1,1.74-1.5,3.49-1.5,5.23,0,3.2,1.36,6.83,4.08,10.9,2.58,3.34,5.15,6.69,7.73,10.03,11.73,10.75,25.47,16.13,41.21,16.13,8.87,0,17.24-1.89,25.11-5.67,9.44-4.21,17.1-11.48,22.96-21.8,5.72-9.74,8.58-19.98,8.58-30.73Z"/>
  <path class="cls-4" d="m789.42,153.15c0-12.35-4.93-24.7-14.81-37.06-3.72-4.8-13.59-14.97-29.62-30.52,4.29-5.81,10.59-12.93,18.89-21.36,12.73-12.79,19.6-19.69,20.6-20.71-2.29-4.07-4.58-8.14-6.87-12.21-2.86-4.65-6.08-8.36-9.66-11.12-10.3-7.99-22.39-11.99-36.27-11.99-11.3,0-21.39,2.83-30.26,8.5-8.16,5.23-14.66,12.54-19.53,21.91-4.87,9.37-7.3,19.07-7.3,29.1,0,11.48,4.93,23.18,14.81,35.09,9.3,9.59,18.6,19.18,27.9,28.77l-36.06,37.49c-1,1.74-1.5,3.49-1.5,5.23,0,3.2,1.36,6.83,4.08,10.9,2.58,3.34,5.15,6.69,7.73,10.03,11.73,10.75,25.47,16.13,41.21,16.13,8.87,0,17.24-1.89,25.11-5.67,9.44-4.21,17.1-11.48,22.96-21.8,5.72-9.74,8.58-19.98,8.58-30.73Z"/>
  <path class="cls-8" d="m793.71,169.94c-3,10.46-8.37,19.98-16.09,28.56-8.3,9.15-17.39,14.97-27.26,17.44-6.01,1.45-12.02,2.18-18.03,2.18-14.31,0-27.47-4.36-39.52-13.08-12.88-9.45-20.1-21.15-21.68-35.13l36.95-37.46c-14.31-14.53-23.75-25.29-28.33-32.26-8.58-12.93-12.3-26.09-11.16-39.45,1-12.79,5.9-24.7,14.7-35.75,8.8-11.04,19.21-18.24,31.23-21.58,5.87-1.6,11.73-2.4,17.6-2.4,19.89,0,36.41,8.36,49.57,25.07,5.87,7.27,9.23,13.73,10.09,19.4l-38.41,39.46c13.73,12.79,23.47,23.25,29.19,31.39,8.87,12.64,13.31,25.21,13.31,37.71,0,5.23-.72,10.54-2.15,15.91Z"/>
  <path class="cls-3" d="m793.71,169.94c-3,10.46-8.37,19.98-16.09,28.56-8.3,9.15-17.39,14.97-27.26,17.44-6.01,1.45-12.02,2.18-18.03,2.18-14.31,0-27.47-4.36-39.52-13.08-12.88-9.45-20.1-21.15-21.68-35.13l36.95-37.46c-14.31-14.53-23.75-25.29-28.33-32.26-8.58-12.93-12.3-26.09-11.16-39.45,1-12.79,5.9-24.7,14.7-35.75,8.8-11.04,19.21-18.24,31.23-21.58,5.87-1.6,11.73-2.4,17.6-2.4,19.89,0,36.41,8.36,49.57,25.07,5.87,7.27,9.23,13.73,10.09,19.4l-38.41,39.46c13.73,12.79,23.47,23.25,29.19,31.39,8.87,12.64,13.31,25.21,13.31,37.71,0,5.23-.72,10.54-2.15,15.91Z"/>
  <path class="cls-11" d="m774.61,157.73c.43-1.16.65-2.4.65-3.71,0-1.89-.68-4.47-2.04-7.74-1.36-3.27-2.04-5.56-2.04-6.87,0-1.45.43-2.76,1.29-3.92,3.86,5.09,5.8,10.97,5.8,17.66,0,9.74-4.08,20.64-12.23,32.7-3.15,3.34-7.22,6.25-12.23,8.72-.57.29-5.08,2.03-13.52,5.23-.57-.14-.93-.44-1.07-.87v-1.31c.29-.58.43-1.02.43-1.31,8.94-1.6,16.63-6.18,23.11-13.73,6.19-7.12,10.16-15.4,11.87-24.85Z"/>
  <path class="cls-4" d="m774.61,157.73c.43-1.16.65-2.4.65-3.71,0-1.89-.68-4.47-2.04-7.74-1.36-3.27-2.04-5.56-2.04-6.87,0-1.45.43-2.76,1.29-3.92,3.86,5.09,5.8,10.97,5.8,17.66,0,9.74-4.08,20.64-12.23,32.7-3.15,3.34-7.22,6.25-12.23,8.72-.57.29-5.08,2.03-13.52,5.23-.57-.14-.93-.44-1.07-.87v-1.31c.29-.58.43-1.02.43-1.31,8.94-1.6,16.63-6.18,23.11-13.73,6.19-7.12,10.16-15.4,11.87-24.85Z"/>
  <path class="cls-11" d="m770.53,41.98c-2.15,2.61-4.29,5.23-6.44,7.85-3,3.2-5.72,4.58-8.15,4.14,0-1.74,1.72-4.03,5.15-6.94,3.43-2.87,5.15-5.05,5.15-6.47,0-1.74-1.21-3.42-3.65-5.01-13.16-8.94-24.46-13.4-33.91-13.4-4.01,0-7.8.65-11.37,1.96,1.43-3.2,5.15-5.01,11.16-5.45,21.6,1.02,35.62,8.79,42.06,23.33Z"/>
  <path class="cls-4" d="m770.53,41.98c-2.15,2.61-4.29,5.23-6.44,7.85-3,3.2-5.72,4.58-8.15,4.14,0-1.74,1.72-4.03,5.15-6.94,3.43-2.87,5.15-5.05,5.15-6.47,0-1.74-1.21-3.42-3.65-5.01-13.16-8.94-24.46-13.4-33.91-13.4-4.01,0-7.8.65-11.37,1.96,1.43-3.2,5.15-5.01,11.16-5.45,21.6,1.02,35.62,8.79,42.06,23.33Z"/>
  <path class="cls-10" d="m884.97,142.6c.27,2.17-.09,4.11-1.07,5.82-1.16,1.99-2.8,2.98-4.93,2.98-2.67,0-4.71-1.44-6.13-4.33-.27-1.71-.13-3.38.4-5.01.71-1.99,1.91-3.2,3.6-3.65.53-.09,1.07-.14,1.6-.14,2.75,0,4.93,1.44,6.53,4.33Z"/>
  <path class="cls-4" d="m884.97,142.6c.27,2.17-.09,4.11-1.07,5.82-1.16,1.99-2.8,2.98-4.93,2.98-2.67,0-4.71-1.44-6.13-4.33-.27-1.71-.13-3.38.4-5.01.71-1.99,1.91-3.2,3.6-3.65.53-.09,1.07-.14,1.6-.14,2.75,0,4.93,1.44,6.53,4.33Z"/>
  <path class="cls-11" d="m932.68,183.76l-27.32.54v-1.76l22.79-.68c-.98-3.25-3.15-7.99-6.53-14.21-3.55-6.59-5.86-11.51-6.93-14.75l1.6-.95,16.39,31.81Z"/>
  <path class="cls-4" d="m932.68,183.76l-27.32.54v-1.76l22.79-.68c-.98-3.25-3.15-7.99-6.53-14.21-3.55-6.59-5.86-11.51-6.93-14.75l1.6-.95,16.39,31.81Z"/>
  <path class="cls-10" d="m1024.28,102.67c0,3.88-1.78,6.41-5.33,7.58-4.62-.36-7.24-1.89-7.86-4.6-.09-.63-.13-1.22-.13-1.76,0-2.8,1.33-4.96,4-6.5.62-.27,1.33-.41,2.13-.41,1.69,0,3.27.52,4.73,1.56,1.47,1.04,2.29,2.41,2.47,4.13Z"/>
  <path class="cls-4" d="m1024.28,102.67c0,3.88-1.78,6.41-5.33,7.58-4.62-.36-7.24-1.89-7.86-4.6-.09-.63-.13-1.22-.13-1.76,0-2.8,1.33-4.96,4-6.5.62-.27,1.33-.41,2.13-.41,1.69,0,3.27.52,4.73,1.56,1.47,1.04,2.29,2.41,2.47,4.13Z"/>
  <path class="cls-11" d="m1123.42,72.89h-16.26c-.44,7.76-.67,19.58-.67,35.47s-.22,27.84-.67,35.6h-1.2l-.53-73.51c4.44-.18,10.88.04,19.33.68v1.76Z"/>
  <path class="cls-4" d="m1123.42,72.89h-16.26c-.44,7.76-.67,19.58-.67,35.47s-.22,27.84-.67,35.6h-1.2l-.53-73.51c4.44-.18,10.88.04,19.33.68v1.76Z"/>
  <path class="cls-11" d="m1233.83,72.62l-52.38.41-.4,44.13h-1.87v-46.97c12.26-.18,30.48.05,54.64.68v1.76Z"/>
  <path class="cls-4" d="m1233.83,72.62l-52.38.41-.4,44.13h-1.87v-46.97c12.26-.18,30.48.05,54.64.68v1.76Z"/>
  <path class="cls-11" d="m1413.2,180.64h-34.79v-1.76c4.09-.45,9.37-.68,15.86-.68h16.13l1.07-39.53h1.2l.53,41.96Z"/>
  <path class="cls-4" d="m1413.2,180.64h-34.79v-1.76c4.09-.45,9.37-.68,15.86-.68h16.13l1.07-39.53h1.2l.53,41.96Z"/>
  <path class="cls-11" d="m589.42,146.67c-2.4,10.2-8.57,18.68-18.53,25.45-8.71,5.87-18.61,9.43-29.72,10.7v-2.44c10.66-1.53,20.08-5.01,28.25-10.42,9.51-6.23,15.59-14.12,18.26-23.69.09.27.67.4,1.73.4Z"/>
  <path class="cls-4" d="m589.42,146.67c-2.4,10.2-8.57,18.68-18.53,25.45-8.71,5.87-18.61,9.43-29.72,10.7v-2.44c10.66-1.53,20.08-5.01,28.25-10.42,9.51-6.23,15.59-14.12,18.26-23.69.09.27.67.4,1.73.4Z"/>
  <path class="cls-10" d="m544.11,127.98c-.27,3.25-1.64,5.46-4.13,6.63-.35.09-.76.14-1.2.14-1.69,0-3.51-1.44-5.46-4.33-.09-.45-.13-.9-.13-1.35,0-2.62,1.55-4.51,4.66-5.69,1.42,0,2.75.45,4,1.35,1.24.9,2,1.99,2.27,3.25Z"/>
  <path class="cls-4" d="m544.11,127.98c-.27,3.25-1.64,5.46-4.13,6.63-.35.09-.76.14-1.2.14-1.69,0-3.51-1.44-5.46-4.33-.09-.45-.13-.9-.13-1.35,0-2.62,1.55-4.51,4.66-5.69,1.42,0,2.75.45,4,1.35,1.24.9,2,1.99,2.27,3.25Z"/>
  <path class="cls-8" d="m1507.77,85.34c-1.33,1.62-2.67,3.25-4,4.87-1.87,1.98-3.55,2.84-5.06,2.57,0-1.08,1.07-2.5,3.2-4.31,2.13-1.78,3.2-3.14,3.2-4.02,0-1.08-.75-2.12-2.27-3.11-8.17-5.55-15.19-8.32-21.06-8.32-2.49,0-4.84.41-7.06,1.22.89-1.99,3.2-3.11,6.93-3.39,13.42.63,22.12,5.46,26.12,14.49Z"/>
  <path class="cls-4" d="m1507.77,85.34c-1.33,1.62-2.67,3.25-4,4.87-1.87,1.98-3.55,2.84-5.06,2.57,0-1.08,1.07-2.5,3.2-4.31,2.13-1.78,3.2-3.14,3.2-4.02,0-1.08-.75-2.12-2.27-3.11-8.17-5.55-15.19-8.32-21.06-8.32-2.49,0-4.84.41-7.06,1.22.89-1.99,3.2-3.11,6.93-3.39,13.42.63,22.12,5.46,26.12,14.49Z"/>
  <path class="cls-8" d="m1518.09,154.38c0-7.67-3.06-15.34-9.2-23.01-2.31-2.98-8.44-9.3-18.39-18.95,2.67-3.61,6.58-8.03,11.73-13.27,7.91-7.94,12.17-12.23,12.79-12.86-1.42-2.53-2.84-5.05-4.26-7.58-1.78-2.89-3.78-5.19-6-6.9-6.4-4.96-13.91-7.45-22.52-7.45-7.02,0-13.28,1.76-18.79,5.28-5.06,3.25-9.11,7.78-12.13,13.61-3.02,5.82-4.53,11.84-4.53,18.07,0,7.13,3.06,14.39,9.2,21.79,5.77,5.96,11.55,11.91,17.33,17.87l-22.39,23.28c-.62,1.08-.93,2.17-.93,3.25,0,1.99.84,4.24,2.53,6.77,1.6,2.08,3.2,4.15,4.8,6.23,7.29,6.68,15.81,10.02,25.59,10.02,5.51,0,10.71-1.17,15.59-3.52,5.86-2.62,10.62-7.13,14.26-13.54,3.55-6.05,5.33-12.41,5.33-19.09Z"/>
  <path class="cls-4" d="m1518.09,154.38c0-7.67-3.06-15.34-9.2-23.01-2.31-2.98-8.44-9.3-18.39-18.95,2.67-3.61,6.58-8.03,11.73-13.27,7.91-7.94,12.17-12.23,12.79-12.86-1.42-2.53-2.84-5.05-4.26-7.58-1.78-2.89-3.78-5.19-6-6.9-6.4-4.96-13.91-7.45-22.52-7.45-7.02,0-13.28,1.76-18.79,5.28-5.06,3.25-9.11,7.78-12.13,13.61-3.02,5.82-4.53,11.84-4.53,18.07,0,7.13,3.06,14.39,9.2,21.79,5.77,5.96,11.55,11.91,17.33,17.87l-22.39,23.28c-.62,1.08-.93,2.17-.93,3.25,0,1.99.84,4.24,2.53,6.77,1.6,2.08,3.2,4.15,4.8,6.23,7.29,6.68,15.81,10.02,25.59,10.02,5.51,0,10.71-1.17,15.59-3.52,5.86-2.62,10.62-7.13,14.26-13.54,3.55-6.05,5.33-12.41,5.33-19.09Z"/>
  <path class="cls-11" d="m1510.3,157.23c.27-.72.4-1.49.4-2.3,0-1.17-.42-2.78-1.27-4.81-.84-2.03-1.27-3.45-1.27-4.26,0-.9.27-1.71.8-2.44,2.4,3.16,3.6,6.81,3.6,10.97,0,6.05-2.53,12.82-7.6,20.31-1.95,2.08-4.49,3.88-7.6,5.42-.36.18-3.15,1.26-8.4,3.25-.36-.09-.58-.27-.67-.54v-.81c.18-.36.27-.63.27-.81,5.55-.99,10.33-3.84,14.35-8.53,3.84-4.42,6.31-9.57,7.37-15.43Z"/>
  <path class="cls-5" d="m1510.3,157.23c.27-.72.4-1.49.4-2.3,0-1.17-.42-2.78-1.27-4.81-.84-2.03-1.27-3.45-1.27-4.26,0-.9.27-1.71.8-2.44,2.4,3.16,3.6,6.81,3.6,10.97,0,6.05-2.53,12.82-7.6,20.31-1.95,2.08-4.49,3.88-7.6,5.42-.36.18-3.15,1.26-8.4,3.25-.36-.09-.58-.27-.67-.54v-.81c.18-.36.27-.63.27-.81,5.55-.99,10.33-3.84,14.35-8.53,3.84-4.42,6.31-9.57,7.37-15.43Z"/>
  <path class="cls-8" d="m1520.76,164.8c-1.87,6.5-5.2,12.41-10,17.73-5.15,5.69-10.8,9.3-16.93,10.83-3.73.9-7.46,1.35-11.2,1.35-8.89,0-17.06-2.71-24.54-8.12-8-5.87-12.48-13.13-13.46-21.82l22.94-23.26c-8.88-9.02-14.75-15.7-17.59-20.04-5.33-8.03-7.64-16.2-6.93-24.5.62-7.94,3.66-15.34,9.13-22.2,5.46-6.86,11.93-11.33,19.39-13.4,3.64-.99,7.29-1.49,10.93-1.49,12.35,0,22.61,5.19,30.79,15.57,3.64,4.51,5.73,8.53,6.26,12.05l-23.86,24.5c8.53,7.94,14.57,14.44,18.13,19.49,5.51,7.85,8.26,15.66,8.26,23.42,0,3.25-.44,6.54-1.33,9.88Z"/>
  <path class="cls-3" d="m1520.76,164.8c-1.87,6.5-5.2,12.41-10,17.73-5.15,5.69-10.8,9.3-16.93,10.83-3.73.9-7.46,1.35-11.2,1.35-8.89,0-17.06-2.71-24.54-8.12-8-5.87-12.48-13.13-13.46-21.82l22.94-23.26c-8.88-9.02-14.75-15.7-17.59-20.04-5.33-8.03-7.64-16.2-6.93-24.5.62-7.94,3.66-15.34,9.13-22.2,5.46-6.86,11.93-11.33,19.39-13.4,3.64-.99,7.29-1.49,10.93-1.49,12.35,0,22.61,5.19,30.79,15.57,3.64,4.51,5.73,8.53,6.26,12.05l-23.86,24.5c8.53,7.94,14.57,14.44,18.13,19.49,5.51,7.85,8.26,15.66,8.26,23.42,0,3.25-.44,6.54-1.33,9.88Z"/>
  <path class="cls-9" d="m1507.77,83.82c-1.33,1.62-2.67,3.25-4,4.87-1.87,1.98-3.55,2.84-5.06,2.57,0-1.08,1.07-2.5,3.2-4.31,2.13-1.78,3.2-3.14,3.2-4.02,0-1.08-.75-2.12-2.27-3.11-8.17-5.55-15.19-8.32-21.06-8.32-2.49,0-4.84.41-7.06,1.22.89-1.99,3.2-3.11,6.93-3.39,13.42.63,22.12,5.46,26.12,14.49Z"/>
  <path class="cls-1" d="m1507.77,83.82c-1.33,1.62-2.67,3.25-4,4.87-1.87,1.98-3.55,2.84-5.06,2.57,0-1.08,1.07-2.5,3.2-4.31,2.13-1.78,3.2-3.14,3.2-4.02,0-1.08-.75-2.12-2.27-3.11-8.17-5.55-15.19-8.32-21.06-8.32-2.49,0-4.84.41-7.06,1.22.89-1.99,3.2-3.11,6.93-3.39,13.42.63,22.12,5.46,26.12,14.49Z"/>
  <path class="cls-7" d="m1510.3,155.7c.27-.72.4-1.49.4-2.3,0-1.17-.42-2.78-1.27-4.81-.84-2.03-1.27-3.45-1.27-4.26,0-.9.27-1.71.8-2.44,2.4,3.16,3.6,6.81,3.6,10.97,0,6.05-2.53,12.82-7.6,20.31-1.95,2.08-4.49,3.88-7.6,5.42-.36.18-3.15,1.26-8.4,3.25-.36-.09-.58-.27-.67-.54v-.81c.18-.36.27-.63.27-.81,5.55-.99,10.33-3.84,14.35-8.53,3.84-4.42,6.31-9.57,7.37-15.43Z"/>
  <path class="cls-6" d="m1510.3,155.7c.27-.72.4-1.49.4-2.3,0-1.17-.42-2.78-1.27-4.81-.84-2.03-1.27-3.45-1.27-4.26,0-.9.27-1.71.8-2.44,2.4,3.16,3.6,6.81,3.6,10.97,0,6.05-2.53,12.82-7.6,20.31-1.95,2.08-4.49,3.88-7.6,5.42-.36.18-3.15,1.26-8.4,3.25-.36-.09-.58-.27-.67-.54v-.81c.18-.36.27-.63.27-.81,5.55-.99,10.33-3.84,14.35-8.53,3.84-4.42,6.31-9.57,7.37-15.43Z"/>
</svg>